<?xml version="1.0" standalone="no"?>
<!DOCTYPE svg PUBLIC "-//W3C//DTD SVG 20010904//EN"
 "http://www.w3.org/TR/2001/REC-SVG-20010904/DTD/svg10.dtd">
<svg version="1.0" xmlns="http://www.w3.org/2000/svg"
 width="848.000000pt" height="700.000000pt" viewBox="0 0 848.000000 700.000000"
 preserveAspectRatio="xMidYMid meet">

<g transform="translate(0.000000,700.000000) scale(0.100000,-0.100000)"
fill="#000000" stroke="none">
<path d="M4770 6700 c0 -5 5 -10 11 -10 5 0 7 5 4 10 -3 6 -8 10 -11 10 -2 0
-4 -4 -4 -10z"/>
<path d="M4917 6703 c-4 -3 -7 -17 -7 -30 0 -18 -5 -23 -25 -23 -32 0 -65 -33
-65 -65 0 -24 31 -65 49 -65 6 0 13 5 16 10 4 6 15 8 26 5 18 -6 19 0 19 84 0
91 -1 97 -13 84z m-9 -109 c3 -34 -17 -58 -41 -48 -38 14 -24 88 16 82 16 -2
23 -11 25 -34z"/>
<path d="M5057 6703 c-4 -3 -7 -17 -7 -30 0 -18 -6 -23 -24 -23 -56 0 -78 -70
-36 -114 13 -13 24 -16 37 -11 10 5 24 7 31 6 9 -1 12 22 12 89 0 90 -1 96
-13 83z m-9 -96 c7 -33 -7 -67 -27 -67 -27 0 -44 63 -24 84 13 13 48 1 51 -17z"/>
<path d="M4600 6610 c0 -81 16 -112 22 -42 3 35 5 37 38 37 33 0 35 -2 38 -37
6 -70 22 -39 22 42 0 47 -4 80 -10 80 -5 0 -10 -16 -10 -35 0 -34 -1 -35 -40
-35 -39 0 -40 1 -40 35 0 19 -4 35 -10 35 -6 0 -10 -33 -10 -80z"/>
<path d="M5132 6634 c-50 -35 -1 -133 54 -109 17 8 16 9 -8 12 -30 5 -53 27
-43 43 3 5 24 10 46 10 32 0 39 3 39 20 0 19 -27 40 -52 40 -8 0 -24 -7 -36
-16z m63 -14 c4 -6 -8 -10 -30 -10 -22 0 -34 4 -30 10 3 6 17 10 30 10 13 0
27 -4 30 -10z"/>
<path d="M5283 6643 c-21 -4 -23 -10 -23 -59 0 -66 18 -72 22 -6 3 43 5 47 28
47 23 0 25 -5 30 -50 4 -35 7 -45 13 -32 10 26 9 52 -5 82 -11 24 -19 27 -65
18z"/>
<path d="M4770 6584 c0 -34 4 -53 10 -49 6 3 10 28 10 56 0 27 -4 49 -10 49
-5 0 -10 -25 -10 -56z"/>
<path d="M4600 6266 l0 -86 40 0 c22 0 40 5 40 10 0 6 -13 10 -30 10 l-30 0 0
69 c0 39 -4 73 -10 76 -6 4 -10 -25 -10 -79z"/>
<path d="M5300 6340 c0 -5 7 -7 15 -4 19 8 45 -13 45 -36 0 -9 -18 -37 -40
-62 -21 -25 -36 -48 -33 -52 10 -10 103 -7 103 3 0 6 -16 11 -35 13 l-36 3 30
35 c32 37 39 78 19 98 -14 14 -68 16 -68 2z"/>
<path d="M4750 6300 c-7 -4 1 -10 19 -13 39 -8 40 -27 2 -27 -19 0 -35 -8 -45
-21 -27 -39 1 -64 60 -53 30 5 34 10 34 38 0 51 -10 74 -35 78 -13 3 -29 2
-35 -2z m50 -75 c0 -15 -46 -32 -57 -22 -3 4 -3 13 0 22 8 20 57 20 57 0z"/>
<path d="M5005 6285 c-14 -13 -25 -32 -25 -42 0 -30 29 -63 55 -63 37 0 39 18
3 22 -22 2 -34 9 -36 21 -3 14 4 17 36 17 62 0 76 32 25 59 -29 15 -30 15 -58
-14z m63 -12 c2 -9 -8 -13 -32 -13 -28 0 -34 3 -29 16 7 18 54 16 61 -3z"/>
<path d="M4871 6243 c11 -32 17 -69 14 -81 -4 -17 -2 -23 7 -20 14 5 72 148
63 157 -8 8 -24 -19 -32 -51 -8 -39 -22 -35 -40 12 -25 62 -34 47 -12 -17z"/>
<path d="M5137 6293 c-11 -10 -8 -103 3 -103 6 0 10 16 10 35 0 22 8 43 20 55
l20 20 -23 0 c-13 0 -27 -3 -30 -7z"/>
<path d="M2877 6034 c-8 -8 1 -24 14 -24 5 0 9 7 9 15 0 15 -12 20 -23 9z"/>
<path d="M3027 6033 c-4 -3 -7 -20 -7 -36 0 -25 -3 -29 -22 -24 -28 8 -68 -27
-68 -59 0 -12 8 -31 18 -43 14 -17 24 -20 55 -15 l37 7 0 88 c0 89 -1 95 -13
82z m-18 -87 c7 -8 11 -27 9 -43 -2 -22 -8 -28 -27 -28 -28 0 -42 30 -30 63
10 25 31 29 48 8z"/>
<path d="M3160 5999 c0 -27 -3 -31 -22 -26 -33 9 -58 -19 -58 -63 0 -50 19
-65 66 -53 40 9 41 12 36 136 -2 45 -22 50 -22 6z m-4 -63 c10 -41 1 -61 -29
-64 -25 -3 -27 -1 -27 36 0 43 5 52 31 52 11 0 21 -10 25 -24z"/>
<path d="M2718 6014 c-11 -11 -10 -154 1 -154 6 0 11 15 13 33 3 29 6 32 38
32 32 0 35 -3 38 -32 6 -63 22 -32 22 41 0 78 -16 114 -22 49 -3 -36 -5 -38
-38 -38 -33 0 -35 2 -40 38 -3 22 -8 35 -12 31z"/>
<path d="M4859 5975 c-92 -30 -189 -145 -205 -243 l-6 -40 -89 -7 c-80 -6 -89
-9 -89 -27 0 -17 5 -20 30 -16 41 6 47 -7 10 -21 -17 -5 -30 -15 -30 -20 0 -6
-14 -18 -32 -27 -17 -9 -36 -20 -42 -25 -6 -5 -49 -32 -96 -61 -133 -79 -287
-174 -380 -233 -47 -29 -110 -69 -140 -87 -30 -18 -69 -42 -86 -53 -155 -98
-317 -195 -326 -195 -4 0 -11 12 -14 28 -21 81 -87 161 -169 201 -41 20 -65
25 -131 25 -69 0 -89 -4 -137 -28 -89 -45 -151 -124 -166 -210 -7 -40 -8 -41
-46 -41 -22 0 -64 4 -92 8 -44 6 -53 5 -53 -8 0 -10 10 -15 29 -15 38 0 49
-17 19 -29 -13 -5 -93 -30 -178 -56 -85 -26 -186 -57 -225 -70 -38 -12 -86
-26 -105 -30 -19 -4 -39 -11 -45 -15 -5 -4 -26 -11 -45 -15 -19 -4 -80 -22
-135 -40 -55 -18 -147 -47 -205 -65 -58 -17 -125 -38 -149 -46 -58 -18 -61
-18 -61 8 0 73 -110 203 -197 232 -59 20 -156 20 -215 1 -60 -21 -149 -101
-167 -151 -8 -21 -20 -53 -28 -71 l-13 -32 -76 34 c-42 19 -80 35 -85 35 -13
0 -11 -177 2 -185 5 -4 41 9 79 29 75 40 90 43 90 21 0 -24 49 -128 73 -153
152 -164 421 -124 513 76 10 23 21 42 24 42 3 0 15 -22 27 -48 12 -26 40 -87
63 -137 23 -49 60 -127 81 -172 65 -137 65 -127 16 -172 -23 -21 -71 -66 -107
-100 -66 -63 -80 -71 -80 -47 0 38 -105 186 -132 186 -5 0 -23 10 -39 23 -27
19 -43 22 -127 22 -91 0 -101 -2 -152 -32 -30 -17 -67 -44 -82 -60 -27 -28
-78 -131 -78 -158 0 -22 -13 -19 -91 20 -38 20 -74 33 -79 30 -6 -4 -10 -21
-10 -39 0 -17 -5 -37 -11 -43 -8 -8 -8 -13 0 -17 6 -4 11 -25 11 -47 0 -31 4
-39 18 -39 10 0 22 4 27 9 6 4 36 20 68 34 53 24 58 25 64 9 28 -83 61 -138
107 -178 67 -59 127 -78 226 -72 118 7 198 62 255 173 l29 57 20 -28 c76 -105
206 -316 200 -327 -15 -25 -157 -243 -187 -288 l-32 -47 -28 57 c-38 73 -76
112 -145 147 -49 25 -69 29 -137 29 -97 0 -158 -25 -222 -92 -36 -38 -83 -130
-83 -163 0 -16 -17 -12 -91 25 -39 19 -75 32 -80 29 -5 -3 -9 -21 -9 -40 0
-22 -6 -37 -15 -40 -19 -8 -19 -24 0 -24 11 0 15 -11 15 -38 0 -21 3 -41 6
-45 4 -3 42 12 85 34 l79 39 15 -36 c8 -20 15 -40 15 -44 0 -29 51 -95 105
-135 151 -115 379 -56 459 119 13 28 26 57 28 65 3 9 43 -21 116 -89 62 -57
112 -105 112 -107 0 -2 -20 -45 -44 -96 -44 -92 -84 -180 -146 -315 -34 -75
-43 -84 -54 -54 -51 138 -201 221 -351 193 -104 -19 -197 -101 -231 -204 -9
-29 -18 -55 -20 -58 -2 -4 -38 11 -80 32 -43 21 -81 36 -86 33 -9 -6 -11 -177
-2 -186 3 -3 39 9 79 28 41 19 78 34 83 34 4 0 16 -24 25 -54 21 -66 61 -118
129 -165 l51 -36 111 0 111 0 57 37 c53 35 98 84 98 106 0 5 6 15 14 21 8 7
17 30 21 52 4 23 12 39 21 39 15 0 108 -27 309 -90 72 -23 159 -50 195 -60 36
-11 101 -30 145 -44 157 -50 311 -98 370 -115 33 -10 69 -21 80 -25 11 -5 26
-10 33 -12 22 -6 13 -23 -15 -26 -14 -2 -28 -9 -31 -17 -4 -11 8 -12 64 -6
125 13 117 15 125 -32 11 -60 41 -113 92 -160 75 -69 99 -78 214 -78 l101 0
59 40 c63 44 117 114 133 176 12 44 16 44 100 -9 30 -19 71 -45 90 -57 19 -12
61 -38 92 -58 32 -20 61 -37 65 -37 3 0 14 -7 23 -15 9 -8 34 -25 56 -37 68
-40 122 -73 249 -153 28 -17 57 -35 65 -38 8 -4 42 -25 75 -46 33 -21 111 -70
173 -107 63 -37 124 -77 136 -89 13 -11 32 -25 42 -32 17 -10 15 -12 -18 -12
-26 -1 -38 -6 -38 -15 0 -14 34 -21 139 -29 33 -2 36 -5 48 -54 29 -115 117
-210 216 -234 62 -15 172 -7 219 15 86 41 153 130 177 236 8 38 34 73 251 339
47 57 105 130 130 161 50 65 236 294 284 351 17 20 59 72 94 115 162 206 405
501 426 519 13 11 28 29 35 40 10 17 11 15 9 -20 -2 -30 1 -40 12 -40 10 0 18
17 24 53 11 57 21 61 45 16 53 -97 118 -147 216 -166 166 -30 303 52 358 215
l25 75 -23 67 c-37 104 -78 153 -169 199 -50 25 -63 28 -138 24 -99 -4 -159
-30 -219 -95 -22 -24 -42 -43 -44 -43 -3 0 -5 11 -5 25 0 23 -4 25 -33 23 -36
-2 -57 7 -57 24 0 7 -9 30 -19 52 -26 56 -71 170 -71 182 0 10 34 78 66 131
15 26 23 31 44 26 14 -3 30 -6 35 -7 6 0 11 18 13 42 2 23 6 42 10 42 4 0 18
-19 32 -41 78 -128 271 -176 404 -99 80 45 115 89 146 179 l28 80 -22 63 c-31
87 -43 108 -87 149 -64 61 -101 74 -214 74 -81 0 -107 -4 -135 -20 -47 -26
-108 -84 -126 -117 -20 -38 -32 -35 -36 10 -3 36 -4 37 -42 37 -39 0 -40 1
-79 74 l-40 74 18 51 c10 28 28 74 41 101 12 28 26 62 29 78 7 28 9 29 60 31
24 1 31 6 35 29 l5 27 49 -50 c27 -27 55 -50 63 -50 7 0 13 -4 13 -10 0 -27
169 -42 245 -21 50 14 133 76 158 119 10 18 29 61 41 96 l23 65 -21 63 c-29
87 -57 131 -108 169 -67 49 -106 62 -188 63 -62 0 -85 -4 -131 -26 -61 -29
-127 -94 -148 -145 -19 -48 -36 -40 -47 20 -6 35 -14 52 -24 52 -11 0 -14 -10
-12 -40 2 -37 1 -39 -13 -21 -8 11 -15 23 -15 27 0 4 -8 10 -17 13 -10 4 -31
25 -48 48 -16 22 -55 71 -85 108 -30 36 -71 86 -90 110 -19 24 -47 58 -61 75
-23 26 -167 205 -234 290 -13 17 -48 59 -77 95 -260 318 -554 683 -570 707 -9
14 -19 41 -22 59 -18 93 -87 183 -172 224 -60 29 -169 36 -235 15z m190 -32
c64 -20 142 -90 167 -148 21 -51 18 -160 -6 -209 -46 -94 -146 -159 -247 -159
-79 0 -168 41 -215 99 -48 59 -62 110 -55 197 9 105 58 169 163 212 70 29 118
31 193 8z m236 -371 c3 -15 17 -50 30 -77 14 -26 25 -54 25 -60 0 -6 11 -35
25 -63 14 -29 25 -56 25 -60 0 -9 75 -196 89 -222 4 -8 43 -102 85 -208 76
-190 90 -245 54 -209 -9 9 -20 17 -23 17 -4 0 -30 15 -58 33 -29 19 -77 49
-107 67 -147 89 -157 98 -165 137 -22 120 -123 221 -243 243 -157 28 -296 -49
-351 -194 -11 -31 -21 -63 -21 -71 0 -11 -14 -8 -57 14 -91 46 -113 53 -113
36 0 -9 11 -20 25 -25 41 -16 29 -30 -26 -30 -36 0 -49 4 -47 13 10 36 61 195
68 212 13 32 26 72 65 200 52 166 50 164 92 158 29 -5 35 -3 40 16 6 22 6 22
37 -6 85 -78 147 -99 263 -90 59 4 84 11 116 33 46 30 117 102 117 119 0 17
31 56 40 50 5 -3 11 -18 15 -33z m-767 -24 c2 -9 -3 -22 -10 -29 -7 -8 -29
-34 -48 -59 -19 -25 -39 -50 -45 -56 -5 -7 -22 -27 -37 -45 -53 -67 -294 -363
-346 -426 l-27 -33 -282 0 c-156 0 -283 4 -283 9 0 7 109 80 135 90 5 2 46 27
90 56 44 29 85 54 91 56 9 3 177 108 329 204 75 47 222 137 295 181 36 21 76
46 89 56 27 21 45 19 49 -4z m1032 -248 c56 -69 145 -178 198 -243 53 -65 104
-129 112 -141 8 -13 22 -30 30 -38 8 -9 27 -31 42 -49 121 -152 292 -363 298
-369 3 -3 41 -50 84 -105 44 -55 84 -104 90 -110 18 -16 48 -66 43 -72 -6 -6
-54 18 -104 53 -21 14 -47 30 -58 35 -11 5 -65 38 -120 73 -55 36 -132 84
-171 107 -80 48 -67 28 -285 439 -31 58 -67 125 -81 150 -14 25 -43 79 -65
120 -22 41 -54 100 -70 130 -86 157 -113 210 -113 216 0 10 58 -57 170 -196z
m-1056 103 c-21 -37 -54 -99 -74 -138 -21 -38 -52 -97 -70 -130 -18 -33 -54
-99 -79 -147 l-46 -88 -82 0 c-46 0 -83 4 -83 9 0 5 15 27 33 48 17 22 46 56
62 77 17 21 67 84 113 140 92 111 92 112 142 175 63 80 111 133 117 127 2 -2
-12 -35 -33 -73z m1043 -273 c68 -127 154 -284 163 -300 5 -8 22 -40 38 -70
16 -30 48 -90 70 -132 23 -42 42 -79 42 -82 0 -14 -24 -3 -85 36 -42 28 -68
53 -76 73 -10 26 -23 57 -69 170 -5 11 -36 90 -70 175 -34 85 -67 169 -75 185
-27 61 -53 134 -48 139 3 3 20 -23 38 -57 17 -34 50 -96 72 -137z m-1052 159
c-6 -27 -70 -190 -96 -244 -5 -11 -20 -47 -32 -80 -21 -54 -26 -60 -55 -63
-20 -2 -32 1 -32 9 0 11 212 409 218 409 2 0 1 -14 -3 -31z m-1303 -171 c57
-24 120 -90 139 -144 29 -88 9 -202 -47 -264 -112 -124 -314 -122 -420 4 -47
57 -62 95 -63 162 -3 201 198 325 391 242z m1904 -3 c68 -30 130 -107 140
-171 20 -135 -30 -242 -140 -297 -167 -84 -372 17 -393 193 -8 72 4 132 39
185 76 114 219 151 354 90z m-629 -17 c-3 -8 -6 -5 -6 6 -1 11 2 17 5 13 3 -3
4 -12 1 -19z m-38 -123 c-13 -45 -27 -75 -35 -75 -19 0 -18 2 18 93 38 97 48
86 17 -18z m-459 -119 c0 -11 -75 -114 -100 -136 -3 -3 -18 -22 -33 -42 -15
-21 -34 -38 -41 -38 -6 0 -40 18 -74 40 -33 22 -64 40 -67 40 -4 0 -21 10 -38
23 -39 27 -58 39 -119 75 -86 49 -74 52 212 52 217 0 260 -2 260 -14z m230 -2
c0 -10 -38 -86 -85 -171 -47 -85 -85 -158 -85 -164 0 -19 -39 -8 -96 29 -32
21 -67 41 -76 45 -31 11 -20 36 52 125 129 160 118 152 210 152 68 0 80 -3 80
-16z m115 6 c3 -5 -6 -38 -20 -72 -15 -35 -34 -85 -43 -112 -15 -44 -25 -54
-92 -97 -41 -27 -76 -45 -78 -41 -3 11 125 256 160 305 19 27 61 37 73 17z
m50 -84 c-22 -71 -64 -133 -73 -107 -6 17 55 174 74 194 21 21 21 -17 -1 -87z
m114 63 c6 -18 11 -38 11 -45 0 -13 -90 -68 -98 -59 -3 3 1 24 8 47 28 90 59
113 79 57z m822 -62 c19 -39 51 -98 226 -420 78 -143 133 -254 129 -262 -5
-13 -33 -15 -188 -13 l-182 3 -12 41 c-29 101 -86 169 -179 214 -39 19 -66 24
-125 24 -85 0 -147 -23 -211 -81 -37 -34 -89 -119 -89 -147 0 -36 -21 -21 -56
39 -21 36 -44 65 -51 65 -18 0 -16 -28 2 -46 20 -21 19 -38 -2 -30 -37 14
-123 71 -123 81 0 9 40 110 75 190 7 17 32 77 55 135 42 106 57 127 74 110 14
-14 46 -12 47 3 1 6 2 17 4 22 1 6 3 13 3 17 1 4 20 -12 42 -35 21 -24 64 -56
95 -71 47 -24 68 -29 133 -28 128 0 226 59 279 169 14 29 29 53 32 53 3 -1 13
-15 22 -33z m-2687 -4 c-6 -29 -37 -60 -235 -243 -62 -58 -125 -116 -139 -130
-14 -13 -46 -44 -72 -67 l-47 -42 -63 19 c-35 10 -106 32 -158 48 -52 16 -149
46 -215 66 -65 21 -125 41 -133 45 -14 8 39 28 233 88 55 17 159 50 230 72 72
23 136 41 143 41 7 0 20 4 30 9 9 6 40 16 67 24 49 15 236 72 285 87 14 5 37
9 53 9 25 1 27 -2 21 -26z m925 -18 c29 -19 55 -35 57 -35 5 0 115 -69 152
-95 12 -9 22 -19 22 -24 0 -10 -70 -91 -78 -91 -6 0 -52 55 -119 140 -6 8 -35
43 -63 78 -29 34 -46 62 -38 62 7 0 37 -16 67 -35z m1871 15 c21 -11 59 -33
83 -50 25 -16 50 -30 56 -30 6 0 11 -4 11 -8 0 -5 17 -17 38 -26 82 -38 99
-67 204 -341 10 -27 24 -60 29 -72 6 -11 10 -26 7 -33 -2 -6 -35 28 -74 77
-121 150 -304 377 -322 398 -39 46 -81 105 -77 105 3 0 23 -9 45 -20z m-2000
-80 c41 -121 107 -330 114 -361 4 -20 -1 -36 -22 -62 -90 -117 -108 -137 -119
-137 -7 0 -13 7 -13 16 0 23 -57 114 -89 142 -93 81 -237 102 -342 48 -31 -15
-70 -42 -86 -59 -37 -40 -83 -125 -83 -154 0 -33 -12 -29 -73 27 -69 63 -102
70 -57 13 11 -14 20 -29 20 -33 0 -8 -165 42 -176 52 -3 4 7 32 21 65 65 141
119 259 174 376 18 37 36 67 42 67 5 0 18 -6 29 -12 25 -16 39 1 40 47 1 27 2
28 13 11 61 -97 151 -147 267 -148 55 -1 87 4 121 19 59 26 125 86 150 135 11
22 25 38 30 36 6 -2 23 -42 39 -88z m1117 45 c3 -9 -2 -24 -11 -33 -9 -9 -57
-67 -106 -129 -50 -62 -96 -115 -102 -119 -20 -13 -1 57 52 193 10 25 116 101
143 102 10 1 20 -6 24 -14z m-3267 -8 c139 -50 206 -164 181 -302 -6 -31 -14
-62 -17 -68 -69 -119 -212 -175 -335 -132 -211 75 -255 338 -77 462 73 50 174
67 248 40z m1379 -33 c-10 -20 -24 -44 -32 -53 -8 -9 -23 -32 -32 -51 -10 -19
-21 -37 -25 -40 -4 -3 -28 -39 -54 -80 -27 -41 -57 -87 -67 -102 -10 -15 -19
-30 -19 -33 0 -11 -72 -105 -81 -105 -25 0 -136 35 -149 47 -13 12 -10 18 22
46 19 17 91 84 159 147 68 63 148 138 179 167 66 62 103 92 111 93 4 0 -1 -16
-12 -36z m895 -50 c12 -11 35 -37 51 -58 17 -21 43 -54 59 -72 27 -33 28 -35
12 -59 -9 -14 -20 -25 -24 -25 -11 1 -121 207 -127 238 -3 15 -2 20 1 12 4 -8
16 -24 28 -36z m960 -71 c-32 -59 -69 -128 -82 -153 -14 -25 -33 -62 -44 -82
-22 -44 -32 -46 -73 -14 -28 22 -29 25 -14 43 9 10 60 72 113 138 119 147 150
183 154 179 2 -1 -22 -51 -54 -111z m1081 -103 c69 -85 138 -170 153 -189 15
-19 53 -65 85 -104 32 -38 56 -75 54 -81 -4 -13 -87 -20 -132 -12 -25 5 -37
19 -74 89 -55 104 -146 273 -216 402 -30 55 -54 103 -55 107 0 12 53 -49 185
-212z m-1285 74 c-12 -33 -28 -85 -37 -116 -17 -62 -29 -70 -58 -38 -18 20
-17 23 20 116 28 70 45 99 64 109 35 18 38 3 11 -71z m-1688 -16 c-100 -210
-126 -266 -138 -295 -12 -27 -20 -33 -44 -33 -17 0 -33 6 -36 14 -6 15 -2 22
84 156 31 47 71 110 91 140 70 109 89 117 43 18z m1303 2 c41 -28 73 -55 70
-59 -9 -15 -152 -101 -166 -101 -17 1 -84 84 -84 105 0 23 68 104 87 105 9 0
51 -23 93 -50z m283 -11 c-6 -19 -20 -48 -31 -66 l-19 -32 -39 26 c-33 22 -38
29 -27 39 15 15 121 74 125 70 2 -1 -2 -18 -9 -37z m1647 -11 c74 -46 79 -54
172 -229 28 -52 60 -111 72 -133 34 -59 25 -67 -66 -64 l-78 3 -27 55 c-15 30
-34 76 -42 101 -7 25 -23 64 -35 87 -12 23 -21 46 -21 52 0 6 -11 35 -24 63
-29 62 -42 107 -29 107 5 0 40 -19 78 -42z m-1379 -134 c-24 -59 -49 -110 -55
-112 -28 -9 -19 35 24 115 27 49 53 98 59 110 7 14 12 18 14 9 2 -7 -17 -62
-42 -122z m-890 104 c3 -13 15 -34 25 -49 19 -27 12 -62 -8 -37 -16 20 -43
108 -33 108 5 0 12 -10 16 -22z m557 -90 c6 -8 -1 -35 -17 -70 -14 -31 -26
-60 -26 -64 0 -4 -9 -26 -19 -48 -11 -23 -25 -54 -31 -71 l-12 -30 -40 45
c-75 85 -74 75 -19 179 69 129 65 126 115 96 22 -13 45 -30 49 -37z m-386 6
l37 -46 -29 -24 c-17 -13 -35 -24 -41 -24 -5 0 -20 21 -32 46 -21 43 -22 48
-7 70 8 13 20 24 25 24 5 0 26 -21 47 -46z m-2062 1 c108 -35 294 -92 349
-108 28 -8 51 -18 53 -24 4 -12 -155 -158 -173 -158 -13 0 -116 92 -278 248
-90 86 -90 87 49 42z m2260 -48 c-43 -80 -44 -81 -72 -56 -12 13 -23 30 -23
38 0 18 113 92 119 78 2 -5 -9 -32 -24 -60z m2220 -37 c88 -55 175 -108 193
-117 26 -14 32 -23 32 -49 0 -54 -19 -64 -123 -64 -51 0 -97 4 -104 8 -13 8
-173 297 -173 313 0 5 3 9 8 9 4 0 79 -45 167 -100z m-1955 35 c10 -12 3 -26
-41 -80 -29 -36 -56 -65 -61 -65 -11 0 -10 17 1 25 5 3 19 34 31 70 22 67 43
82 70 50z m-547 -26 c13 -24 15 -35 6 -45 -17 -21 -26 -17 -38 17 -22 64 0 83
32 28z m-498 0 c121 -37 190 -127 190 -249 0 -115 -66 -207 -179 -249 -72 -27
-106 -27 -185 1 -111 39 -181 133 -181 243 0 129 77 224 210 261 62 17 69 17
145 -7z m1899 1 c61 -19 108 -53 152 -111 34 -45 44 -157 22 -232 -29 -95
-171 -185 -277 -175 -110 11 -216 95 -242 192 -14 53 -6 153 15 194 31 61 90
109 158 131 80 25 92 25 172 1z m1916 -6 c52 -17 97 -55 137 -115 25 -38 28
-51 28 -129 0 -79 -3 -90 -29 -130 -42 -63 -81 -96 -146 -119 -72 -27 -115
-26 -186 0 -116 44 -177 130 -176 250 0 124 59 204 179 246 73 25 111 25 193
-3z m-5349 -5 c13 -11 66 -60 118 -107 51 -48 102 -94 112 -103 27 -23 24 -38
-13 -71 -38 -34 -44 -34 -59 -6 -7 12 -50 80 -96 150 -104 159 -115 183 -62
137z m2213 -32 c15 -19 26 -42 26 -53 0 -23 -41 -96 -56 -101 -10 -3 -84 123
-84 142 0 8 63 45 77 45 7 0 23 -15 37 -33z m473 1 c17 -19 16 -22 -27 -104
-43 -80 -71 -107 -91 -87 -9 9 2 60 31 138 10 28 21 58 23 67 7 21 39 14 64
-14z m-717 2 c0 -5 -4 -10 -10 -10 -5 0 -10 5 -10 10 0 6 5 10 10 10 6 0 10
-4 10 -10z m-1361 -56 c42 -15 77 -28 79 -30 9 -7 -176 -294 -189 -294 -8 0
-64 50 -161 143 -10 9 -18 21 -18 26 0 8 112 120 160 160 32 26 39 26 129 -5z
m1331 3 c0 -16 -12 -28 -42 -45 -24 -12 -46 -22 -50 -22 -4 0 7 20 25 44 35
49 67 60 67 23z m172 -61 c32 -63 35 -75 21 -80 -32 -13 -52 5 -77 71 -27 69
-26 83 2 83 12 0 30 -25 54 -74z m653 64 c3 -5 -5 -39 -17 -75 -23 -66 -40
-82 -77 -70 -18 5 -18 7 2 48 47 98 74 127 92 97z m-205 -27 c-17 -58 -33 -98
-43 -111 -12 -15 -59 -12 -64 4 -4 12 93 134 107 134 5 0 5 -12 0 -27z m-540
-43 c23 -46 26 -70 6 -70 -8 0 -18 19 -25 44 -19 78 -12 88 19 26z m825 24
c48 -31 18 -104 -41 -104 -45 0 -49 15 -24 73 23 52 29 55 65 31z m-2762 -99
c37 -57 67 -108 67 -114 0 -6 -8 -15 -19 -20 -16 -9 -23 -1 -56 72 -21 45 -46
100 -57 121 -20 45 -21 46 -10 46 4 -1 37 -48 75 -105z m2241 56 c28 -33 34
-46 24 -52 -18 -12 -115 -11 -123 0 -11 18 38 105 56 99 4 -2 23 -23 43 -47z
m-1546 33 c12 -4 22 -13 22 -21 0 -9 -19 -57 -42 -107 l-42 -93 -55 -21 c-31
-11 -69 -24 -85 -28 -27 -6 -28 -6 -15 17 7 13 20 35 29 49 9 14 36 54 58 90
23 36 49 74 57 85 8 10 15 23 15 27 0 9 26 10 58 2z m1195 -37 c15 -47 4 -57
-62 -57 -74 0 -96 7 -80 26 6 8 16 14 21 14 5 0 26 11 46 25 45 31 62 29 75
-8z m-1058 -8 c42 -11 43 -12 47 -56 4 -52 8 -48 -106 -82 -96 -29 -98 -29
-80 17 31 80 69 142 83 137 7 -3 33 -10 56 -16z m1101 -139 c13 -36 24 -66 24
-67 1 -19 -210 103 -218 126 -3 9 19 11 83 9 l87 -3 24 -65z m64 21 c22 -48
22 -81 0 -81 -13 0 -28 37 -36 91 -9 54 8 49 36 -10z m58 27 c-5 -32 -28 -35
-28 -4 0 17 5 26 16 26 10 0 14 -7 12 -22z m212 6 c0 -20 -60 -94 -76 -94 -14
0 -57 87 -49 100 4 6 33 10 66 10 47 0 59 -3 59 -16z m157 1 c2 -6 -4 -20 -12
-30 -15 -20 -15 -20 -30 -1 -23 31 -19 48 12 44 14 -2 28 -8 30 -13z m73 0 c0
-22 -39 -95 -50 -95 -13 0 -13 32 1 67 15 40 49 59 49 28z m114 6 c6 -10 -14
-72 -43 -136 -10 -22 -21 -48 -25 -58 -7 -23 -36 -9 -55 27 -16 29 -8 56 40
131 21 33 35 45 53 45 14 0 27 -4 30 -9z m164 -21 c17 -38 12 -62 -16 -76 -12
-6 -30 -17 -39 -25 -10 -8 -27 -19 -38 -25 -11 -5 -37 -20 -57 -33 -27 -16
-38 -19 -38 -9 0 20 28 94 55 149 25 48 26 49 73 49 43 0 48 -3 60 -30z m1226
-4 c14 -19 26 -38 26 -42 0 -3 30 -60 66 -126 36 -66 63 -122 60 -126 -3 -3
-16 0 -28 7 -27 14 -96 55 -118 71 -8 5 -67 42 -130 81 -63 40 -131 82 -150
94 -19 12 -47 29 -62 39 -16 9 -28 21 -28 26 0 6 66 10 169 10 l169 0 26 -34z
m207 14 c18 -35 57 -128 69 -165 7 -22 22 -58 32 -79 l20 -39 -23 -18 c-12 -9
-35 -24 -50 -33 -26 -15 -27 -15 -51 17 -13 17 -34 52 -46 77 -12 25 -44 86
-71 135 -70 126 -69 126 30 123 60 -2 84 -7 90 -18z m228 -9 c11 -15 25 -39
31 -52 6 -13 19 -37 29 -54 11 -16 20 -37 20 -46 1 -14 -56 -49 -79 -49 -13 0
-170 199 -170 216 0 11 17 14 74 14 71 0 76 -2 95 -29z m231 10 c5 -11 10 -32
10 -48 -1 -23 -10 -34 -56 -61 -30 -19 -61 -31 -68 -29 -17 7 -87 137 -80 149
3 4 45 8 94 8 78 0 91 -2 100 -19z m-4370 -81 c56 -52 82 -82 75 -89 -5 -5
-38 -17 -72 -25 -34 -9 -69 -19 -77 -22 -10 -4 -29 18 -61 66 l-47 72 38 39
c21 21 43 39 49 39 5 0 48 -36 95 -80z m2076 14 c15 -28 16 -37 4 -80 -7 -27
-19 -60 -26 -74 -7 -14 -15 -43 -19 -63 -4 -21 -12 -36 -19 -34 -6 2 -24 28
-41 59 l-29 56 38 96 c34 87 39 94 56 83 11 -6 27 -26 36 -43z m-239 0 c13
-21 23 -47 23 -57 0 -21 -36 -77 -50 -77 -4 0 -18 25 -30 55 -21 53 -22 56 -5
91 20 42 33 40 62 -12z m1485 -5 c44 -55 115 -141 224 -274 50 -60 98 -122
108 -137 l18 -27 -70 -44 c-38 -25 -82 -52 -98 -61 -16 -9 -58 -35 -94 -57
-36 -23 -80 -50 -97 -60 l-33 -19 -6 28 c-10 38 -51 112 -82 145 -15 15 -47
40 -72 55 -41 25 -53 27 -151 27 -99 0 -108 -2 -150 -29 -67 -44 -95 -74 -126
-134 l-28 -56 -13 62 c-16 72 -42 87 -42 25 l-1 -38 -17 28 c-9 15 -22 27 -29
27 -7 0 -13 4 -13 8 0 7 -14 26 -82 107 -29 34 -34 54 -19 71 5 5 31 52 59
104 83 160 84 160 112 153 43 -10 45 -9 48 27 4 46 17 58 32 29 15 -30 91
-109 104 -109 5 0 17 -7 26 -15 23 -21 135 -34 202 -24 95 15 186 89 224 182
10 26 22 47 26 47 4 0 22 -18 40 -41z m-2719 15 c32 -12 2 -56 -107 -156 -169
-157 -148 -144 -187 -110 l-32 29 15 39 c32 79 64 129 90 142 28 13 173 59
195 61 6 0 18 -1 26 -5z m824 -111 c89 -216 104 -260 92 -290 -14 -38 -132
-253 -139 -253 -3 0 -14 19 -25 43 -27 56 -76 110 -133 144 -43 26 -55 28
-147 28 -77 0 -108 -4 -137 -19 -59 -28 -105 -77 -143 -147 -28 -53 -35 -60
-41 -44 -36 105 -73 143 -60 63 l7 -42 -23 20 c-12 10 -34 30 -48 44 -14 14
-54 51 -88 83 -34 32 -62 62 -62 67 0 5 17 35 38 67 79 119 97 147 116 177 42
71 72 90 102 65 15 -13 16 -11 32 56 l9 40 19 -34 c52 -92 129 -148 226 -161
136 -19 250 33 316 146 21 34 39 61 41 59 2 -3 24 -53 48 -112z m135 57 c115
-70 114 -69 87 -115 l-23 -38 -30 35 c-89 102 -139 168 -128 168 6 0 48 -23
94 -50z m1899 -2 c106 -65 187 -115 242 -150 23 -14 70 -43 105 -64 34 -20 62
-43 62 -50 0 -7 -37 -36 -82 -64 -65 -39 -85 -47 -94 -38 -20 23 -155 188
-217 266 -65 81 -66 83 -97 121 -39 47 -22 42 81 -21z m-1518 -8 c-6 -24 -19
-34 -27 -21 -4 5 1 17 10 25 20 21 23 20 17 -4z m584 5 c3 -9 -2 -24 -11 -33
-9 -9 -47 -55 -84 -101 -37 -46 -72 -86 -78 -88 -7 -2 -29 17 -49 42 -45 54
-53 42 95 135 101 63 117 69 127 45z m1536 -57 c37 -49 45 -64 35 -75 -17 -21
-51 -12 -58 17 -4 14 -17 46 -29 72 -11 26 -21 49 -21 52 0 16 30 -12 73 -66z
m359 60 c5 -14 -47 -90 -85 -127 l-26 -23 -20 40 c-23 46 -23 46 58 94 52 30
67 34 73 16z m-5146 -19 c66 -25 137 -92 156 -149 17 -48 14 -157 -5 -202 -39
-92 -129 -150 -242 -156 -64 -3 -76 -1 -135 30 -148 77 -194 250 -100 379 37
51 65 73 126 98 64 26 130 26 200 0z m558 -29 c39 -55 44 -75 20 -84 -38 -14
-53 -6 -74 41 -22 50 -20 93 4 93 8 0 30 -23 50 -50z m807 2 c-11 -23 -25 -43
-30 -46 -5 -3 -18 -24 -30 -47 -12 -22 -39 -64 -60 -92 -21 -29 -43 -62 -50
-74 -6 -13 -17 -23 -23 -23 -16 0 -68 51 -68 65 0 7 41 50 91 96 51 46 112
103 137 126 26 23 48 41 50 39 2 -2 -6 -22 -17 -44z m-341 6 c-1 -19 -36 -95
-48 -102 -14 -9 -86 59 -78 73 7 10 87 39 114 40 6 1 12 -5 12 -11z m1453 -8
c3 -11 2 -22 -3 -25 -11 -7 -33 22 -25 35 10 16 22 12 28 -10z m-2015 -31 c7
-11 17 -32 22 -45 9 -23 7 -26 -28 -41 -37 -16 -165 -53 -179 -53 -9 1 157
160 166 160 3 0 12 -9 19 -21z m1836 -61 c30 -35 36 -55 21 -68 -9 -7 -17 -11
-19 -9 -13 17 -76 140 -76 148 0 10 25 -14 74 -71z m958 45 c-9 -21 -20 -40
-23 -43 -4 -3 -15 -23 -25 -45 -31 -65 -67 -125 -76 -125 -5 0 -13 11 -20 24
-9 22 -6 30 23 68 45 58 130 158 135 158 2 0 -4 -17 -14 -37z m-632 0 c0 -37
-13 -56 -36 -51 -25 5 -30 35 -8 59 25 28 44 24 44 -8z m293 -3 l18 -29 -63
-40 c-34 -23 -64 -38 -67 -36 -9 10 64 135 79 135 9 0 24 -13 33 -30z m2210
-47 c-39 -69 -55 -82 -61 -51 -5 24 84 136 97 123 2 -2 -14 -35 -36 -72z
m-135 10 c18 -41 19 -51 8 -68 -22 -33 -40 -28 -75 22 l-33 47 28 23 c16 13
34 23 40 23 6 0 21 -21 32 -47z m-4198 27 c0 -6 -16 -35 -36 -65 -40 -60 -50
-60 -80 -3 -17 32 -12 48 15 48 9 0 21 4 27 9 9 9 36 17 62 20 6 0 12 -4 12
-9z m118 -33 c23 -23 42 -48 42 -54 0 -18 -101 -223 -110 -223 -4 0 -20 19
-35 43 -16 23 -36 54 -47 69 -24 36 -23 53 7 92 14 18 25 37 25 43 0 5 9 18
20 28 11 10 20 24 20 32 0 26 37 12 78 -30z m1572 18 c9 -11 10 -19 2 -27 -14
-14 -32 -1 -32 23 0 23 13 25 30 4z m-50 -41 c9 -27 9 -38 0 -49 -17 -21 -25
-19 -44 10 -15 23 -15 28 -1 55 19 36 29 32 45 -16z m240 6 c0 -5 3 -15 6 -24
8 -20 -19 -22 -35 -2 -15 17 -4 46 15 39 8 -3 14 -9 14 -13z m-2016 -44 c20
-30 36 -57 36 -60 0 -9 -55 -96 -61 -96 -6 0 -75 145 -81 169 -3 14 35 41 59
41 6 0 27 -24 47 -54z m4236 12 c56 -63 57 -72 19 -122 -19 -25 -38 -46 -42
-46 -9 0 -53 94 -63 135 -4 18 -1 32 11 45 25 28 41 25 75 -12z m-1850 -71 c0
-8 -19 -37 -41 -65 -38 -46 -44 -50 -65 -40 -34 16 -38 41 -14 95 11 27 26 61
33 76 l12 28 38 -40 c20 -22 37 -47 37 -54z m-497 42 c17 -40 16 -70 -5 -96
-15 -19 -25 -8 -43 52 -14 44 -15 58 -5 70 20 24 34 18 53 -26z m372 19 c-6
-22 -45 -108 -51 -117 -6 -7 -74 44 -74 55 0 8 115 84 128 84 2 0 0 -10 -3
-22z m-2364 -74 c22 -48 37 -89 35 -92 -3 -3 -34 4 -68 15 -35 12 -105 34
-156 49 -50 16 -91 33 -89 39 4 10 190 73 220 74 13 1 29 -23 58 -85z m4234
14 c14 -29 25 -61 25 -71 0 -17 -5 -16 -47 8 -27 15 -56 35 -67 45 -18 18 -17
19 20 43 22 14 40 26 42 26 2 1 14 -23 27 -51z m-3773 25 c10 -9 18 -21 18
-28 0 -13 -110 -118 -117 -111 -2 2 7 28 20 58 13 29 27 63 31 76 9 26 23 28
48 5z m1360 0 c23 -21 23 -36 -3 -59 -17 -16 -22 -16 -29 -4 -11 17 -13 42 -4
64 8 20 13 20 36 -1z m302 -6 l29 -24 -29 -20 c-49 -34 -53 -34 -64 -13 -15
28 -3 80 18 80 9 0 30 -11 46 -23z m2371 2 c9 -27 -3 -71 -17 -67 -6 2 -17 13
-25 24 -11 17 -10 23 3 42 19 28 31 28 39 1z m-2767 -24 c-3 -3 -9 2 -12 12
-6 14 -5 15 5 6 7 -7 10 -15 7 -18z m2834 3 c-7 -7 -12 -8 -12 -2 0 14 12 26
19 19 2 -3 -1 -11 -7 -17z m-2644 -17 c3 -8 -1 -12 -9 -9 -7 2 -15 10 -17 17
-3 8 1 12 9 9 7 -2 15 -10 17 -17z m-1360 -50 c17 -17 32 -38 32 -48 0 -10
-19 -44 -41 -76 -40 -55 -44 -58 -75 -53 -73 14 -135 37 -132 50 4 18 155 156
171 156 7 0 27 -13 45 -29z m1350 -19 l40 -48 -34 -22 c-18 -12 -37 -22 -42
-22 -4 0 -18 20 -30 45 -21 43 -21 47 -6 70 9 14 20 25 24 25 5 0 26 -21 48
-48z m652 1 c0 -22 -39 -93 -51 -93 -13 0 -69 39 -69 48 0 4 18 27 40 51 39
43 41 43 60 26 11 -10 20 -24 20 -32z m1586 -56 c55 -98 55 -99 37 -124 -10
-14 -25 -36 -34 -49 -8 -13 -27 -32 -41 -44 l-26 -20 -24 29 c-12 16 -34 43
-48 61 -14 18 -44 55 -67 83 -24 28 -43 54 -43 58 0 12 164 110 178 107 8 -2
38 -47 68 -101z m298 70 c7 -19 5 -36 -9 -66 -21 -47 -29 -49 -70 -17 l-29 24
38 46 c41 51 56 54 70 13z m-4239 -24 c19 -27 35 -55 35 -65 0 -14 -6 -14 -57
4 -32 11 -62 24 -67 28 -9 9 30 80 45 80 5 0 24 -21 44 -47z m1563 18 c3 -16
-1 -22 -10 -19 -7 3 -15 15 -16 27 -3 16 1 22 10 19 7 -3 15 -15 16 -27z
m-1970 8 c26 -7 52 -15 57 -19 6 -4 49 -18 98 -30 50 -13 87 -28 87 -35 0 -15
-70 -125 -79 -125 -3 0 -26 19 -51 42 -203 189 -203 189 -112 167z m2448 -68
c18 -37 14 -72 -15 -136 -10 -22 -23 -51 -28 -65 -10 -24 -11 -24 -34 25 -30
63 -30 112 1 193 l23 64 18 -24 c10 -12 26 -38 35 -57z m2294 75 c0 -2 -3 -11
-6 -20 -9 -23 -24 -20 -24 4 0 11 7 20 15 20 8 0 15 -2 15 -4z m-2410 -17 c0
-16 -20 -49 -29 -49 -17 0 -20 30 -5 45 18 17 34 20 34 4z m160 -4 c7 -8 9
-22 6 -31 -6 -15 -8 -15 -26 1 -11 10 -20 24 -20 32 0 18 25 17 40 -2z m1926
-17 c58 -36 64 -51 35 -85 -26 -32 -38 -29 -52 12 -7 19 -16 35 -19 35 -8 0
-30 46 -30 60 0 15 8 12 66 -22z m-2486 -33 c0 -8 -13 -28 -30 -45 -34 -35
-39 -21 -10 28 21 34 40 42 40 17z m339 -15 c9 -29 6 -60 -7 -60 -3 0 -16 10
-29 22 -35 33 -29 64 14 67 6 1 16 -13 22 -29z m296 16 c18 -13 18 -14 -4 -45
-34 -47 -62 -26 -47 35 7 27 23 30 51 10z m2224 -20 c31 -49 25 -65 -9 -26
-30 33 -39 60 -21 60 5 0 19 -15 30 -34z m-2769 -8 c24 -40 25 -47 4 -55 -21
-8 -31 5 -39 50 -9 47 8 49 35 5z m815 -9 c17 -22 37 -48 46 -57 21 -23 59
-79 59 -86 0 -12 -97 43 -177 99 l-22 15 20 35 c12 19 26 35 32 35 7 -1 26
-19 42 -41z m1865 21 c0 -23 -20 -70 -30 -70 -4 0 -12 6 -18 13 -8 9 -5 21 10
45 23 36 38 41 38 12z m-3777 -73 c91 -88 109 -122 60 -112 -94 20 -226 61
-230 72 -5 12 63 123 76 123 4 0 46 -38 94 -83z m591 68 c100 -31 162 -90 190
-184 20 -68 20 -84 0 -152 -22 -74 -96 -147 -175 -172 -73 -22 -109 -22 -181
4 -107 39 -178 137 -178 243 0 69 15 111 57 164 42 52 69 70 136 93 65 22 89
23 151 4z m1910 -5 c122 -46 186 -131 186 -245 0 -91 -15 -129 -73 -188 -40
-40 -65 -56 -110 -70 -74 -22 -110 -22 -174 2 -70 25 -107 53 -145 109 -31 44
-33 52 -33 137 0 95 9 123 57 175 36 39 53 50 115 76 71 29 107 30 177 4z
m1877 6 c70 -21 102 -40 141 -84 56 -62 62 -79 63 -172 0 -80 -2 -89 -34 -138
-39 -61 -67 -83 -142 -111 -66 -26 -101 -26 -175 -3 -71 21 -145 85 -169 144
-40 100 -8 243 69 304 40 32 138 73 176 73 14 1 46 -6 71 -13z m-5224 -97 c65
-60 66 -62 52 -87 -8 -14 -19 -27 -25 -29 -6 -2 -31 27 -55 64 -24 37 -46 70
-49 73 -12 11 -40 60 -40 70 0 14 32 -10 117 -91z m2581 61 c17 -11 32 -25 32
-32 0 -7 -18 -44 -39 -82 l-39 -69 -16 27 c-9 14 -23 37 -31 51 -8 13 -15 31
-15 39 0 15 57 86 69 86 3 0 21 -9 39 -20z m1431 -2 c57 -63 151 -184 151
-195 0 -10 -56 -13 -265 -13 -225 0 -264 2 -259 14 3 8 45 38 92 66 48 28 123
73 167 100 44 28 83 50 86 50 4 0 16 -10 28 -22z m-3665 -9 c14 -7 26 -15 26
-19 0 -3 -18 -23 -39 -44 l-39 -38 -24 43 c-44 84 -44 83 6 76 24 -4 55 -12
70 -18z m1546 -30 c0 -11 -23 -32 -59 -53 -71 -43 -91 -46 -59 -8 98 120 92
114 105 96 7 -10 13 -26 13 -35z m2550 19 c26 -72 28 -85 14 -116 -18 -44 -36
-40 -62 13 -27 57 -27 68 0 105 28 38 33 37 48 -2z m280 -55 c0 -20 -39 -15
-71 8 -28 20 -29 21 -13 52 l17 31 33 -39 c19 -22 34 -46 34 -52z m-4489 10
l31 -66 -34 -34 -34 -33 -42 40 -42 41 16 32 c9 18 20 34 24 37 4 3 12 15 19
28 6 12 16 22 22 22 6 0 24 -30 40 -67z m1812 37 c-7 -27 -20 -33 -27 -14 -7
18 11 47 24 39 5 -3 6 -14 3 -25z m2455 18 c16 -16 15 -38 -2 -38 -13 0 -26
20 -26 41 0 13 14 11 28 -3z m-2391 -35 c23 -57 25 -74 9 -98 -22 -33 -32 -31
-51 10 -16 32 -16 37 1 75 10 22 20 40 23 40 4 0 11 -12 18 -27z m313 -6 c0
-14 -20 -37 -32 -37 -4 0 -2 11 4 25 12 27 28 34 28 12z m-1860 -28 c47 -16
46 -14 24 -54 -15 -29 -42 -53 -49 -43 -49 73 -65 102 -65 113 0 14 11 12 90
-16z m1438 -1 c13 -22 14 -31 4 -52 -6 -14 -16 -26 -21 -26 -15 0 -39 88 -27
100 14 14 25 9 44 -22z m693 13 c13 -10 39 -26 57 -35 35 -18 39 -36 20 -79
-13 -26 -15 -27 -104 -27 -50 0 -93 2 -96 5 -3 3 5 24 17 48 62 121 63 122
106 88z m1879 -5 c0 -36 -20 -86 -35 -86 -22 0 -29 57 -11 85 21 32 46 33 46
1z m-4100 -59 c0 -5 11 -22 25 -39 14 -16 25 -37 25 -46 0 -19 -90 -162 -102
-162 -3 0 -18 25 -32 55 -51 106 -50 100 -9 188 l37 79 28 -33 c15 -18 28 -37
28 -42z m1464 -9 c13 -29 21 -56 19 -60 -2 -5 -53 -8 -113 -8 -125 0 -131 7
-49 55 28 17 63 38 78 47 14 9 29 17 34 17 4 1 18 -23 31 -51z m2710 41 c28
-13 37 -50 21 -86 -8 -19 -18 -23 -52 -23 -51 0 -54 13 -23 78 23 47 20 46 54
31z m-2451 -30 c-4 -13 -9 -17 -16 -10 -12 12 -1 45 12 37 5 -3 7 -15 4 -27z
m277 -9 c33 -64 29 -70 -45 -70 -45 0 -65 4 -65 13 0 14 69 97 81 97 5 0 18
-18 29 -40z m1898 -5 c12 -25 22 -50 22 -55 0 -6 -29 -10 -65 -10 -49 0 -65 3
-65 14 0 17 61 95 76 95 5 1 20 -19 32 -44z m-4025 7 c-3 -12 -12 -22 -19 -22
-20 0 -17 27 3 39 22 12 24 10 16 -17z m397 4 c41 -14 88 -29 105 -34 27 -8
29 -12 30 -54 l0 -46 -102 -31 c-56 -17 -110 -31 -120 -31 -10 0 -33 21 -52
50 -30 45 -33 53 -22 76 17 38 62 94 75 94 6 0 44 -11 86 -24z m-580 -88 c0
-14 -53 -68 -66 -68 -20 0 -47 58 -40 85 3 13 13 31 22 40 15 15 19 14 50 -16
19 -18 34 -37 34 -41z m2084 56 c24 -23 20 -44 -9 -44 -20 0 -25 5 -25 23 0
20 7 37 16 37 1 0 10 -7 18 -16z m-194 -13 c7 -14 7 -22 0 -26 -19 -12 -39 3
-33 24 7 26 19 27 33 2z m2454 3 c10 -27 7 -34 -19 -34 -27 0 -33 18 -13 38
16 16 25 15 32 -4z m-4210 -29 c4 -14 2 -34 -4 -45 -9 -17 -15 -18 -31 -9 -29
15 -34 37 -14 59 24 27 42 25 49 -5z m1856 10 c0 -8 -4 -15 -10 -15 -5 0 -10
7 -10 15 0 8 5 15 10 15 6 0 10 -7 10 -15z m-190 -50 c0 -3 -12 -28 -26 -56
-19 -39 -29 -49 -42 -44 -33 12 -161 90 -162 98 0 4 52 7 115 7 63 0 115 -2
115 -5z m100 -2 c-1 -12 -29 -47 -34 -42 -2 2 -7 14 -10 27 -6 19 -4 22 18 22
14 0 26 -3 26 -7z m90 -8 c0 -8 -4 -15 -10 -15 -5 0 -10 7 -10 15 0 8 5 15 10
15 6 0 10 -7 10 -15z m120 7 c0 -15 -38 -44 -49 -37 -6 3 -11 15 -11 26 0 14
7 19 30 19 17 0 30 -4 30 -8z m220 -2 c0 -15 -38 -87 -49 -94 -9 -6 -81 80
-81 96 0 4 29 8 65 8 38 0 65 -4 65 -10z m276 -7 c27 -36 17 -60 -41 -98 -30
-20 -62 -35 -71 -33 -13 2 -94 127 -94 144 0 2 43 4 96 4 80 0 99 -3 110 -17z
m1390 2 c-12 -33 -159 -205 -175 -205 -9 0 -45 18 -79 40 -33 22 -65 40 -70
40 -5 0 -17 9 -27 20 -10 11 -22 20 -26 20 -13 0 -148 84 -149 93 0 4 120 7
266 7 233 0 265 -2 260 -15z m234 5 c0 -21 -41 -90 -52 -90 -15 0 -78 71 -78
88 0 8 20 12 65 12 38 0 65 -4 65 -10z m120 4 c0 -3 -5 -15 -11 -26 -11 -21
-12 -21 -25 -3 -20 27 -17 35 11 35 14 0 25 -3 25 -6z m154 -16 c11 -44 6 -65
-19 -76 -35 -16 -32 -17 -55 30 -29 61 -27 68 24 68 37 0 45 -4 50 -22z
m-4420 -27 c20 -22 20 -21 -27 -121 -20 -43 -29 -40 -70 23 l-40 60 42 39 c44
42 57 41 95 -1z m-194 -9 c11 -26 9 -29 -53 -87 -101 -93 -117 -106 -117 -93
0 7 15 35 34 63 18 27 48 73 66 102 35 55 50 58 70 15z m536 -13 c8 -16 14
-30 14 -33 0 -4 -65 -29 -107 -41 -32 -9 -29 9 13 72 39 59 50 59 80 2z m3134
-34 c74 -47 153 -94 174 -106 77 -41 77 -38 -18 -157 -47 -59 -94 -116 -103
-128 -10 -12 -31 -38 -48 -59 -31 -38 -144 -177 -151 -184 -1 -2 -17 25 -33
59 -41 85 -101 141 -180 168 -44 15 -158 15 -202 0 -61 -20 -151 -96 -164
-138 -12 -36 -35 -24 -35 19 l0 39 -40 -5 c-35 -5 -41 -3 -50 18 -5 13 -14 31
-19 39 -30 49 -121 222 -121 230 0 13 122 160 132 160 4 0 14 12 22 28 l15 27
1 -43 c0 -64 22 -49 40 28 l16 63 19 -44 c20 -44 100 -139 117 -139 5 0 16 -6
24 -14 8 -8 40 -20 71 -26 172 -36 322 56 377 233 3 9 9 17 13 17 5 0 69 -38
143 -85z m537 38 c21 -27 44 -54 51 -62 7 -7 12 -17 10 -21 -13 -33 -115 -210
-121 -210 -4 0 -35 18 -68 40 -33 22 -64 40 -68 40 -4 0 -16 9 -26 20 -17 18
-16 21 31 77 27 32 68 82 92 111 24 28 47 52 52 52 5 0 26 -21 47 -47z m-2146
21 c15 -19 16 -81 0 -97 -6 -6 -11 -20 -11 -30 0 -29 -23 -6 -39 38 -11 33
-11 41 5 71 21 38 26 41 45 18z m465 -52 c19 -34 34 -69 34 -77 0 -15 -49 -45
-74 -45 -16 0 -66 59 -66 79 0 22 51 112 62 109 6 -2 26 -32 44 -66z m1877 34
c15 -32 15 -39 0 -83 -22 -68 -30 -73 -59 -38 -28 36 -30 56 -7 98 38 69 43
70 66 23z m-4110 2 c4 -12 4 -24 2 -26 -7 -8 -35 20 -35 34 0 23 27 16 33 -8z
m794 -120 c15 -16 53 -44 83 -61 50 -29 63 -32 140 -32 70 0 94 5 135 25 62
30 124 93 150 154 11 25 23 46 26 46 5 0 82 -139 127 -232 l23 -47 -25 -68
c-43 -119 -114 -291 -127 -307 -4 -5 -19 13 -32 40 -50 98 -140 156 -250 162
-70 4 -149 -10 -173 -31 -7 -7 -31 -25 -53 -42 -22 -16 -50 -49 -63 -72 -13
-24 -26 -43 -30 -43 -4 0 -10 20 -14 45 -6 46 -18 63 -29 45 -3 -5 -17 -10
-31 -10 -18 0 -32 12 -54 48 -17 26 -34 54 -40 62 -5 8 -28 44 -51 80 -23 36
-50 77 -60 92 -11 15 -19 31 -19 36 0 10 180 181 205 195 13 7 14 2 9 -32 -12
-77 18 -42 57 64 l10 30 29 -59 c16 -33 42 -72 57 -88z m865 117 c14 -31 -6
-85 -33 -85 -27 0 -29 12 -11 63 19 53 28 58 44 22z m374 -123 c5 -25 0 -45
-22 -87 -15 -30 -31 -55 -34 -55 -10 0 -60 136 -60 163 0 12 12 47 26 77 l26
55 28 -60 c16 -33 32 -75 36 -93z m2179 118 c8 -16 15 -41 15 -55 0 -21 -4
-26 -22 -23 -27 4 -42 46 -29 81 13 34 17 34 36 -3z m-3625 1 c0 -13 -95 -115
-141 -152 -37 -29 -41 -30 -57 -16 -22 20 -67 106 -59 113 3 3 47 18 99 34 96
29 158 37 158 21z m1260 -11 c0 -11 -4 -20 -10 -20 -5 0 -10 9 -10 20 0 11 5
20 10 20 6 0 10 -9 10 -20z m-352 -33 c53 -32 63 -54 42 -87 -8 -12 -15 -9
-42 20 -19 19 -47 53 -63 74 -34 46 -23 45 63 -7z m1022 28 c0 -3 -4 -11 -10
-18 -5 -7 -37 -46 -71 -87 -34 -41 -64 -76 -68 -78 -10 -4 -44 66 -38 80 2 7
22 22 43 33 22 10 47 26 57 34 30 25 87 48 87 36z m-2520 -50 c45 -47 41 -51
-88 -82 -18 -4 -21 -2 -16 13 13 41 50 104 60 104 5 0 25 -16 44 -35z m2070 6
c12 -24 13 -31 2 -31 -5 0 -14 11 -20 25 -14 29 2 34 18 6z m2306 5 c3 -8 -2
-22 -10 -33 -9 -10 -22 -27 -31 -38 -15 -20 -15 -20 -30 -1 -22 29 -18 49 13
68 33 21 51 22 58 4z m-5131 -25 c53 -23 121 -94 137 -141 18 -54 15 -149 -5
-202 -49 -128 -227 -197 -358 -140 -107 47 -164 132 -164 247 0 63 4 77 34
125 40 67 74 95 143 121 63 23 147 19 213 -10z m540 -26 c19 -30 35 -59 35
-64 0 -6 -26 -17 -57 -26 -32 -8 -71 -20 -88 -26 -63 -22 -167 -50 -171 -46
-2 2 39 44 92 93 54 49 104 97 113 106 26 27 39 21 76 -37z m545 -27 c22 -34
40 -69 40 -78 0 -17 -62 -80 -77 -80 -5 1 -46 36 -93 80 -61 57 -82 82 -74 90
10 10 125 48 151 49 7 1 31 -27 53 -61z m1373 30 c4 -12 4 -24 1 -27 -8 -9
-37 27 -30 38 11 17 23 13 29 -11z m2467 -3 c0 -13 -29 -29 -37 -21 -3 2 0 14
7 25 11 22 30 20 30 -4z m98 -20 c15 -34 15 -78 0 -73 -6 2 -19 19 -29 38 -14
25 -16 37 -7 47 15 19 23 16 36 -12z m-2758 -69 c0 -27 -15 -18 -38 23 -31 55
-27 68 8 28 17 -19 30 -42 30 -51z m105 75 c7 -13 -35 -82 -46 -75 -12 7 -11
26 1 58 9 26 34 35 45 17z m237 -44 c-8 -37 -22 -48 -43 -36 -25 13 -24 30 3
64 19 25 23 26 34 11 6 -9 9 -27 6 -39z m290 -29 c-23 -23 -23 -23 -38 -4 -15
21 -19 68 -7 80 4 3 21 -7 37 -24 l31 -30 -23 -22z m1909 30 c8 -14 -2 -24
-53 -58 -76 -50 -83 -39 -32 48 36 60 38 62 57 45 10 -10 23 -26 28 -35z m325
5 c-8 -16 -22 -35 -30 -42 -28 -24 -19 20 11 51 32 34 40 30 19 -9z m-4356 -4
c0 -7 -16 -36 -36 -67 l-36 -54 -23 23 c-33 34 -41 68 -18 75 10 3 27 10 38
14 53 22 75 25 75 9z m1681 -8 l22 -18 -23 -34 c-24 -36 -49 -59 -62 -59 -4 0
-15 11 -23 24 -15 23 -15 27 5 65 23 46 45 52 81 22z m622 -20 c9 -20 17 -41
17 -46 0 -11 -31 -45 -41 -45 -4 0 -24 20 -45 45 l-37 45 23 20 c36 31 62 25
83 -19z m1892 8 c20 -37 16 -78 -8 -93 -16 -9 -22 -7 -35 14 -10 13 -25 33
-34 42 -23 24 -23 34 4 52 34 24 56 19 73 -15z m-4123 -11 c42 -82 88 -186 88
-198 0 -14 -88 -100 -102 -100 -4 0 -13 10 -19 23 -7 12 -15 24 -18 27 -13 10
-71 112 -71 123 0 7 11 29 25 49 14 20 25 40 25 43 0 9 43 64 50 64 3 1 13
-14 22 -31z m1813 -38 c9 -17 11 -30 5 -30 -16 0 -51 40 -45 50 11 17 24 11
40 -20z m171 18 c4 -6 -3 -20 -17 -31 -26 -21 -36 -9 -19 22 12 23 25 27 36 9z
m-2256 -5 c0 -5 -18 -45 -40 -90 -28 -59 -45 -83 -58 -83 -22 0 -214 59 -224
69 -5 4 31 19 80 35 48 15 116 38 152 51 72 25 90 29 90 18z m371 -26 c73 -73
74 -74 54 -97 -10 -11 -23 -20 -30 -20 -10 0 -34 47 -73 142 -8 19 17 6 49
-25z m2043 -17 c24 -32 36 -56 32 -67 -6 -20 -65 -88 -70 -82 -9 10 -45 89
-56 122 -10 33 -10 41 6 58 27 30 47 23 88 -31z m1464 32 c15 -10 50 -34 79
-53 59 -38 59 -42 -21 -89 -28 -17 -60 -36 -71 -43 -58 -35 -136 -84 -182
-114 -28 -18 -54 -33 -56 -33 -3 0 -29 -16 -58 -35 -30 -19 -59 -35 -66 -35
-11 0 33 67 69 104 7 7 67 81 133 164 66 83 126 152 133 152 7 0 25 -8 40 -18z
m-3798 -53 c18 -33 18 -40 5 -66 -8 -15 -25 -41 -37 -56 -20 -23 -28 -27 -55
-21 -43 9 -42 23 4 123 42 87 48 89 83 20z m4270 -35 c0 -13 -80 -114 -91
-114 -4 0 -17 9 -30 19 l-24 19 18 54 c10 29 26 68 35 85 l17 33 37 -43 c21
-23 38 -47 38 -53z m144 54 c-9 -14 -24 2 -24 25 1 21 1 21 15 3 8 -10 12 -23
9 -28z m-2760 23 c7 -10 -22 -37 -30 -28 -9 8 3 37 15 37 5 0 12 -4 15 -9z
m2486 -13 c0 -20 -48 -118 -57 -118 -5 0 -24 12 -42 28 l-32 27 57 38 c61 40
74 44 74 25z m-3580 -80 c29 -46 62 -99 74 -118 11 -19 23 -37 26 -40 12 -10
51 -83 47 -87 -5 -5 -67 50 -195 172 l-93 90 35 32 c20 18 40 33 44 33 5 0 33
-37 62 -82z m1324 37 c7 -26 -27 -115 -43 -115 -4 0 -14 12 -21 26 -11 20 -12
29 -2 44 7 11 12 24 12 29 0 5 5 22 10 36 8 22 13 25 24 16 8 -7 17 -23 20
-36z m-179 -1 c16 -24 16 -27 -1 -45 -22 -24 -31 -24 -39 0 -7 22 3 71 15 71
4 0 15 -12 25 -26z m293 4 l35 -22 -33 -28 c-19 -15 -40 -28 -46 -28 -16 0
-26 43 -18 75 8 31 17 31 62 3z m227 -39 c15 -33 24 -63 21 -66 -6 -6 -90 40
-118 65 -17 14 -16 17 15 38 17 13 37 23 43 24 6 0 24 -27 39 -61z m332 -107
c25 -46 43 -85 41 -87 -7 -7 -168 189 -168 205 0 8 7 22 17 32 18 21 16 23
110 -150z m1821 128 c1 -14 -2 -32 -8 -40 -9 -13 -13 -12 -30 8 -15 19 -17 28
-9 44 14 26 43 19 47 -12z m-2578 13 c0 -14 -19 -38 -25 -32 -8 8 5 39 16 39
5 0 9 -3 9 -7z m-194 -40 c-10 -10 -19 5 -10 18 6 11 8 11 12 0 2 -7 1 -15 -2
-18z m2844 -8 c0 -5 -5 -3 -10 5 -5 8 -10 20 -10 25 0 6 5 3 10 -5 5 -8 10
-19 10 -25z m-3949 -92 c50 -49 97 -91 104 -96 18 -10 51 -56 59 -84 6 -20 4
-23 -21 -23 -15 0 -73 14 -127 30 -55 17 -101 30 -103 30 -5 0 -83 164 -83
177 0 13 49 52 67 53 7 0 54 -39 104 -87z m1263 65 c7 -12 5 -28 -9 -57 l-18
-41 -19 31 c-18 29 -18 31 -1 60 18 31 30 33 47 7z m692 -40 c27 -35 56 -72
64 -82 8 -11 25 -29 38 -41 24 -25 29 -50 9 -58 -7 -2 -44 15 -82 39 -39 24
-86 53 -106 63 -55 30 -64 45 -42 72 25 31 61 69 66 69 2 0 26 -28 53 -62z
m1578 36 c25 -14 46 -28 46 -31 0 -2 -13 -35 -30 -73 -16 -38 -30 -71 -30 -75
0 -3 -11 -30 -24 -58 -13 -29 -26 -62 -30 -74 -7 -21 -13 -23 -92 -23 -95 0
-101 7 -62 70 24 40 70 125 100 185 31 62 59 105 68 105 4 0 28 -12 54 -26z
m288 -2 c15 -25 15 -30 -3 -70 -11 -23 -24 -42 -30 -42 -19 0 -69 30 -69 42 0
13 68 98 79 98 3 0 14 -12 23 -28z m-4235 -36 c47 -69 45 -79 -14 -60 -27 9
-56 18 -65 21 -10 3 -18 10 -18 15 0 19 42 79 53 75 6 -2 26 -25 44 -51z
m1563 35 c8 -16 1 -31 -45 -87 -55 -67 -71 -69 -35 -4 11 19 27 52 36 73 19
42 29 46 44 18z m-1927 -18 c45 -14 86 -30 91 -34 7 -6 -31 -99 -42 -99 -2 0
-27 22 -56 49 -28 27 -63 60 -78 73 -54 46 -32 49 85 11z m2369 -35 c11 -29
27 -81 35 -115 l16 -62 -27 -35 c-15 -20 -31 -36 -35 -36 -8 0 -39 66 -70 147
-7 17 -10 41 -6 52 10 34 57 112 63 107 3 -3 14 -29 24 -58z m2362 -5 c20 -37
35 -72 33 -77 -5 -16 -97 100 -97 123 0 41 29 20 64 -46z m-2444 46 c0 -16
-20 -49 -29 -49 -17 0 -20 30 -5 45 18 17 34 20 34 4z m176 -17 c23 -15 50
-32 60 -38 18 -11 18 -13 -2 -40 -23 -32 -54 -44 -54 -21 0 8 -11 30 -24 50
-27 40 -41 77 -29 77 4 0 27 -13 49 -28z m1724 15 c0 -7 -8 -24 -17 -37 -10
-14 -28 -45 -40 -70 -13 -25 -42 -81 -66 -125 l-44 -80 -176 -3 c-98 -1 -177
1 -177 6 0 5 57 44 128 87 70 42 143 88 162 100 19 12 64 40 100 61 36 21 76
46 89 56 28 21 41 23 41 5z m-2094 -38 c7 -12 -22 -46 -32 -37 -8 9 5 48 16
48 5 0 12 -5 16 -11z m131 -26 c20 -61 -13 -84 -45 -31 -13 22 -13 29 -3 42
20 24 38 19 48 -11z m2198 13 c18 -13 16 -17 -34 -80 -52 -64 -77 -84 -64 -48
3 9 9 22 13 27 4 6 15 34 24 63 18 54 29 61 61 38z m-4239 -6 c8 0 14 -7 14
-15 0 -17 -69 -125 -80 -125 -4 0 -14 7 -21 16 -11 13 -10 24 5 67 19 55 33
70 54 62 8 -3 20 -5 28 -5z m424 -40 c13 -27 21 -53 17 -56 -7 -7 -108 16
-121 28 -11 9 51 78 69 78 6 0 22 -22 35 -50z m1369 16 c12 -18 21 -36 21 -38
0 -8 -187 -118 -199 -118 -12 0 139 189 151 190 3 0 16 -15 27 -34z m2731 -33
c50 -60 56 -83 23 -83 -15 0 -133 69 -133 78 0 12 43 73 50 70 4 -2 31 -31 60
-65z m-3223 32 c115 -34 186 -126 186 -244 1 -84 -24 -142 -85 -197 -55 -51
-103 -68 -188 -68 -252 0 -366 303 -174 460 74 61 164 78 261 49z m1904 -1
c41 -12 66 -28 102 -66 60 -61 77 -100 77 -175 0 -81 -14 -121 -60 -174 -57
-67 -116 -93 -210 -92 -108 0 -173 34 -234 121 -21 30 -28 56 -33 108 -8 96 8
146 66 206 76 80 178 105 292 72z m1900 0 c75 -22 152 -101 169 -175 36 -148
-40 -281 -183 -324 -68 -20 -106 -19 -174 5 -109 38 -175 131 -175 245 0 94
40 173 110 217 77 48 163 58 253 32z m-4957 -24 c36 -11 68 -24 70 -29 6 -10
-125 -142 -153 -155 -14 -6 -28 -1 -54 18 -20 15 -38 33 -40 40 -8 19 74 145
94 146 9 0 46 -9 83 -20z m4175 4 c18 -9 35 -22 38 -29 2 -8 -17 -52 -43 -99
l-48 -86 -78 0 c-56 0 -78 4 -78 13 0 18 159 214 176 217 0 0 15 -7 33 -16z
m-2338 -26 c23 -29 24 -48 2 -95 -24 -52 -39 -67 -50 -51 -34 53 -34 60 -12
115 12 29 26 53 31 53 5 0 18 -10 29 -22z m442 -74 c20 -52 35 -100 32 -105
-11 -16 -65 -10 -72 9 -4 9 -19 37 -35 61 -15 25 -28 52 -28 62 0 20 37 69 53
69 7 0 29 -43 50 -96z m141 11 c68 -41 75 -55 54 -100 -10 -22 -17 -25 -63
-25 l-51 0 -32 75 c-18 42 -35 89 -39 106 l-6 30 36 -23 c20 -13 65 -41 101
-63z m-671 55 c-7 -25 -19 -34 -28 -20 -10 16 2 40 19 40 9 0 12 -7 9 -20z
m190 -40 c3 -11 2 -20 -3 -20 -14 0 -32 29 -25 40 9 14 21 5 28 -20z m-1794
-18 c13 -20 34 -53 47 -72 12 -19 35 -55 50 -79 56 -86 65 -104 57 -111 -12
-12 -142 -50 -167 -50 -22 1 -196 157 -196 177 0 10 169 172 180 173 3 0 16
-17 29 -38z m4174 2 c48 -30 57 -40 57 -64 0 -58 -4 -60 -105 -60 -98 0 -118
8 -93 38 8 9 20 31 27 47 17 40 40 75 49 75 4 0 33 -16 65 -36z m-4057 5 l66
-21 44 -93 c57 -120 57 -126 1 -139 -26 -6 -31 -1 -83 81 -31 49 -68 106 -83
128 -42 62 -44 65 -26 65 9 0 45 -10 81 -21z m1387 5 c3 -3 -5 -33 -18 -67
l-23 -62 -81 -3 c-66 -2 -81 0 -81 12 0 8 8 17 18 20 9 4 51 28 92 55 79 52
83 54 93 45z m64 -20 c3 -8 -5 -38 -17 -65 -43 -91 -52 -45 -15 69 6 17 24 15
32 -4z m-1953 -20 c4 -9 -2 -29 -11 -43 -10 -14 -20 -30 -23 -36 -18 -37 -95
-145 -102 -145 -6 0 -8 3 -6 8 2 4 12 25 22 47 83 182 104 212 120 169z m2206
-80 c0 -10 -17 -14 -65 -14 -71 0 -74 3 -49 53 32 63 35 63 76 17 21 -23 38
-49 38 -56z m216 45 c18 -36 18 -59 -1 -59 -18 0 -45 51 -45 86 0 23 2 25 16
13 8 -7 22 -25 30 -40z m-1701 2 l90 -29 0 -48 c0 -52 1 -51 -83 -67 l-33 -7
-40 85 c-21 47 -39 88 -39 90 0 8 13 6 105 -24z m-637 -44 l33 -34 -43 -38
c-24 -21 -77 -70 -118 -109 -156 -147 -170 -153 -101 -50 21 33 68 105 105
162 37 56 72 102 79 102 7 0 28 -15 45 -33z m1910 5 c2 -15 -2 -22 -12 -22
-11 0 -16 9 -16 26 0 31 23 28 28 -4z m366 12 c9 -22 -1 -34 -30 -34 -26 0
-32 18 -12 38 17 17 35 15 42 -4z m-528 -96 c-12 -59 -25 -62 -89 -22 -31 19
-57 40 -57 45 0 5 34 9 76 9 l77 0 -7 -32z m64 17 c0 -18 -37 -95 -46 -95 -7
0 6 71 18 93 11 21 28 22 28 2z m100 2 c0 -15 -55 -126 -70 -141 -6 -6 -15 -5
-24 3 -14 12 -8 43 29 134 9 20 65 24 65 4z m210 2 c0 -19 -71 -100 -81 -93
-11 7 -49 79 -49 94 0 6 27 10 65 10 42 0 65 -4 65 -11z m194 -60 c30 -81 30
-83 12 -72 -18 11 -106 120 -106 133 0 5 15 10 34 10 33 0 34 -2 60 -71z m93
26 c30 -53 63 -124 63 -136 0 -12 -59 -41 -70 -34 -6 3 -10 13 -10 21 0 8 -4
22 -10 32 -11 19 -50 140 -50 154 0 5 12 8 27 6 21 -2 34 -14 50 -43z m91 28
c5 -10 17 -42 28 -71 16 -46 16 -54 4 -62 -8 -6 -18 -10 -21 -10 -8 0 -79 134
-79 149 0 18 58 13 68 -6z m130 -8 c18 -40 14 -61 -13 -73 -14 -7 -30 -12 -35
-12 -9 0 -50 84 -50 101 0 5 20 9 43 9 37 0 46 -4 55 -25z m1182 15 c0 -15
-116 -240 -160 -310 -5 -8 -19 -35 -32 -60 -12 -25 -39 -75 -60 -113 -21 -37
-57 -103 -80 -147 -23 -44 -45 -80 -50 -80 -5 0 -18 20 -29 44 -26 59 -82 116
-144 147 -42 20 -65 24 -140 24 -82 0 -95 -3 -140 -29 -50 -30 -115 -91 -115
-108 0 -5 -5 -6 -10 -3 -6 4 -10 16 -8 28 3 19 -2 22 -36 22 l-40 0 -47 115
c-26 63 -53 129 -59 145 -7 17 -18 44 -25 60 -7 17 -21 50 -31 73 l-18 44 25
19 c46 37 119 71 119 55 0 -7 -7 -19 -15 -26 -19 -16 -20 -40 -1 -40 7 0 28
26 47 57 35 58 59 78 59 49 0 -33 49 -113 95 -155 66 -61 104 -75 205 -75 70
0 94 4 134 24 86 43 150 126 171 219 l7 31 189 0 c125 0 189 -4 189 -10z m210
0 c0 -10 -49 -73 -188 -240 -29 -36 -59 -72 -65 -80 -150 -192 -218 -273 -224
-266 -4 4 16 43 122 236 29 52 74 136 100 185 77 144 80 149 88 163 10 15 167
17 167 2z m230 -2 c0 -6 -27 -60 -60 -119 -33 -59 -60 -110 -60 -112 0 -3 -18
-35 -40 -73 -34 -58 -49 -73 -112 -111 -81 -48 -92 -44 -62 24 19 44 65 160
100 250 13 34 28 70 34 80 5 10 14 30 20 46 9 27 11 27 95 27 58 0 85 -4 85
-12z m274 -4 c3 -9 6 -28 6 -43 0 -24 -10 -34 -62 -66 -35 -21 -79 -48 -98
-60 -111 -70 -218 -135 -235 -141 -15 -6 -13 3 17 57 20 35 57 105 83 154 26
50 52 96 57 103 7 8 44 12 118 12 89 0 109 -3 114 -16z m-4368 -83 c73 -69 77
-74 59 -87 -10 -8 -25 -14 -33 -14 -8 0 -53 -13 -101 -29 -47 -16 -113 -36
-146 -45 -33 -9 -69 -21 -80 -26 -26 -12 -130 -40 -146 -40 -14 0 -4 10 194
194 138 128 148 136 163 128 6 -4 47 -40 90 -81z m773 32 c26 -95 130 -187
232 -206 85 -15 175 3 239 49 52 38 108 112 117 157 3 15 9 27 14 27 4 0 25
-21 45 -47 21 -27 43 -53 50 -58 6 -6 20 -25 31 -43 18 -30 19 -37 7 -85 -16
-67 -134 -427 -139 -427 -3 0 -20 25 -39 55 -80 125 -217 173 -366 129 -42
-12 -67 -29 -117 -79 -62 -62 -63 -63 -63 -34 0 35 -23 48 -52 30 -11 -7 -21
-11 -23 -9 -3 3 -69 141 -120 253 -15 33 -47 102 -71 153 -24 51 -44 96 -44
100 0 9 156 62 179 62 10 0 5 -10 -14 -30 -20 -21 -26 -33 -18 -41 7 -7 28 6
69 45 32 30 62 52 65 48 3 -4 11 -26 18 -49z m1060 -15 c28 -52 24 -82 -15
-121 -25 -25 -26 -25 -59 -10 -19 9 -37 23 -40 31 -7 18 66 153 80 149 5 -2
21 -24 34 -49z m191 41 c0 -5 11 -35 25 -65 14 -30 25 -58 25 -63 0 -5 11 -34
25 -65 14 -31 25 -61 25 -66 0 -4 -12 -15 -27 -22 -16 -8 -38 -21 -50 -28 -12
-8 -24 -12 -26 -10 -3 3 -30 51 -62 108 -49 89 -55 105 -43 120 55 71 84 102
95 102 7 0 13 -5 13 -11z m-511 -55 c35 -17 46 -35 37 -59 -8 -22 -31 -8 -60
36 -29 43 -25 47 23 23z m2930 -16 c-13 -18 -73 -94 -133 -168 -115 -141 -269
-331 -314 -389 -15 -18 -50 -61 -78 -95 -28 -33 -92 -113 -143 -176 -50 -63
-100 -124 -109 -135 -10 -11 -42 -51 -72 -90 -30 -38 -59 -75 -65 -81 -5 -6
-26 -30 -45 -54 -63 -79 -89 -106 -89 -90 0 8 9 29 19 45 10 17 29 50 41 75
13 25 53 99 89 165 37 66 89 162 116 212 27 51 64 121 82 155 19 35 45 83 58
108 128 240 113 220 210 282 49 31 130 81 179 111 50 30 128 77 174 106 46 28
88 51 93 51 5 0 -1 -15 -13 -32z m-3957 -93 c68 -152 99 -218 119 -256 25 -47
24 -63 -1 -42 -11 10 -20 21 -20 26 0 4 -20 38 -44 75 -73 113 -152 236 -161
251 -5 9 -2 19 11 28 36 27 53 12 96 -82z m1668 24 c28 -33 50 -64 50 -68 0
-13 -49 -31 -55 -21 -3 5 -12 26 -19 47 -8 21 -22 55 -31 76 -20 49 -7 41 55
-34z m-2878 35 c34 -11 61 -31 96 -69 42 -46 51 -63 61 -117 25 -132 -29 -240
-149 -297 -74 -35 -135 -37 -210 -7 -73 30 -110 61 -148 126 -23 38 -27 57
-27 120 0 63 4 82 27 121 25 42 98 118 116 119 4 1 30 7 57 15 55 16 105 13
177 -11z m4558 13 c0 -7 -4 -17 -8 -22 -5 -6 -15 -30 -23 -55 -7 -25 -24 -66
-36 -92 -13 -27 -23 -53 -23 -59 0 -8 -28 -74 -59 -139 -13 -25 -331 -222
-331 -205 0 5 144 186 243 307 12 14 67 83 122 151 55 69 103 126 108 126 4 1
7 -5 7 -12z m-3464 -64 c20 -32 60 -94 89 -138 28 -44 70 -109 93 -145 23 -36
45 -69 50 -75 19 -25 52 -88 48 -92 -6 -6 -23 9 -197 172 -47 44 -131 122
-188 174 -56 52 -100 99 -98 104 2 6 17 15 33 20 89 27 120 35 126 36 4 1 24
-25 44 -56z m1210 -10 c-10 -10 -19 5 -10 18 6 11 8 11 12 0 2 -7 1 -15 -2
-18z m79 17 c7 -12 -32 -80 -46 -80 -12 0 -12 32 1 64 10 26 34 34 45 16z
m793 -103 c24 -60 42 -113 40 -119 -2 -5 -26 32 -52 83 -27 52 -53 98 -57 104
-16 17 -10 47 9 43 11 -2 31 -38 60 -111z m-530 44 c50 -92 48 -93 -60 -27
l-37 22 19 32 c11 18 25 32 32 32 7 0 28 -27 46 -59z m-1767 8 c19 -16 63 -58
100 -92 36 -34 116 -109 179 -167 132 -122 170 -160 170 -171 0 -4 3 -14 6
-22 11 -30 -40 -24 -179 20 -78 24 -194 60 -257 80 -303 92 -500 154 -574 178
-38 12 -64 25 -59 28 16 10 185 64 223 72 19 4 40 11 45 15 6 5 44 18 85 29
41 11 100 29 130 40 75 27 91 26 131 -10z m1588 2 l24 -18 -32 -47 c-36 -51
-53 -57 -76 -23 -13 21 -13 27 6 65 23 46 41 52 78 23z m626 -24 c10 -23 52
-102 92 -175 41 -73 76 -140 80 -150 7 -20 -67 55 -111 114 -17 23 -62 81 -99
128 l-69 87 24 19 c37 31 60 25 83 -23z m-541 -26 c3 -5 37 -27 76 -50 38 -23
70 -45 70 -49 0 -4 -14 -16 -31 -27 -18 -11 -54 -35 -81 -52 -28 -18 -53 -33
-57 -33 -7 0 -70 73 -85 98 -8 14 12 51 53 95 26 27 45 34 55 18z m421 -63 c9
-35 20 -67 25 -73 11 -16 33 -105 27 -111 -14 -15 -50 23 -76 80 -46 102 -55
134 -41 151 27 32 47 17 65 -47z m-651 44 c5 -8 -54 -116 -60 -110 -3 3 7 37
31 106 5 14 21 16 29 4z m570 -93 c15 -34 25 -64 22 -66 -6 -7 -103 47 -118
65 -10 12 -7 19 17 38 17 13 35 24 41 24 6 0 23 -28 38 -61z m-519 31 c12 -13
15 -24 8 -32 -5 -7 -44 -55 -86 -106 -74 -90 -96 -103 -59 -36 9 18 29 54 43
80 38 73 63 114 70 114 3 0 14 -9 24 -20z m788 -160 c52 -65 86 -117 83 -126
-7 -19 -22 -18 -54 5 -15 11 -45 30 -67 44 -36 22 -43 33 -72 120 -18 53 -33
104 -33 114 0 22 20 -1 143 -157z m-381 34 c21 -38 51 -94 66 -124 16 -30 38
-71 50 -90 40 -65 34 -71 -65 -68 l-87 3 -93 114 c-52 63 -93 121 -91 129 2 9
15 22 29 31 103 63 135 80 143 78 5 -2 27 -34 48 -73z m-320 22 l37 -44 -39
-26 c-137 -90 -271 -168 -277 -162 -3 3 4 16 15 28 12 13 62 74 112 136 50 61
97 112 103 112 7 0 29 -20 49 -44z m398 -6 c77 -50 100 -71 106 -98 4 -15 15
-45 25 -67 28 -64 49 -117 49 -126 0 -5 -16 -9 -35 -9 -25 0 -38 5 -42 18 -3
9 -12 24 -18 32 -7 8 -36 60 -64 114 -29 55 -59 109 -67 120 -15 22 -19 46 -6
46 4 0 27 -14 52 -30z m1720 16 c0 -7 -9 -25 -20 -39 -11 -14 -20 -28 -20 -32
0 -4 -29 -60 -64 -124 -35 -64 -83 -152 -106 -196 -24 -44 -65 -119 -91 -168
-27 -48 -49 -91 -49 -96 0 -5 -6 -16 -13 -23 -6 -7 -21 -32 -32 -55 -11 -24
-23 -43 -26 -43 -6 0 31 113 51 155 11 23 173 426 202 501 16 41 28 56 61 74
23 13 53 32 66 42 28 21 41 23 41 4z m-2685 -87 c179 -67 227 -297 89 -433
-167 -164 -464 -44 -464 187 0 190 190 315 375 246z m1908 -3 c56 -25 119 -88
143 -143 8 -18 14 -63 14 -100 0 -83 -24 -138 -86 -192 -114 -100 -269 -94
-381 14 -56 55 -73 96 -73 180 0 81 16 120 73 178 87 87 202 111 310 63z
m-1240 -39 c3 -7 35 -50 71 -95 36 -46 66 -86 66 -88 0 -2 -122 -4 -271 -4
-232 0 -270 2 -260 14 7 8 55 40 108 73 53 32 113 68 132 80 92 57 104 62 127
46 12 -8 24 -20 27 -26z m484 -9 c12 -13 28 -48 37 -78 8 -30 18 -65 22 -77 4
-17 2 -23 -8 -23 -14 0 -44 59 -74 144 -23 62 -14 74 23 34z m1323 7 c0 -13
-56 -157 -105 -270 -7 -16 -30 -73 -50 -125 -20 -52 -43 -108 -50 -125 -14
-29 -110 -265 -145 -355 -10 -24 -22 -46 -28 -48 -5 -1 -16 14 -25 35 -37 90
-146 164 -253 171 -93 6 -161 -18 -228 -79 -36 -33 -56 -45 -56 -35 0 21 -32
37 -51 25 -27 -17 -25 -20 -93 196 -26 83 -51 159 -56 170 -19 45 -71 217 -67
222 3 2 29 3 58 1 l54 -3 -32 -20 c-38 -23 -45 -50 -10 -39 12 3 47 19 77 35
30 16 58 29 62 29 3 0 11 -21 18 -47 17 -72 75 -150 142 -191 47 -28 70 -36
127 -40 152 -10 258 53 317 189 13 30 23 63 24 75 0 21 21 37 165 124 39 23
97 59 130 80 68 44 75 46 75 25z m-1204 -75 c47 -33 51 -44 32 -85 -20 -43
-48 -29 -69 35 -19 57 -23 80 -13 80 3 0 25 -14 50 -30z m-366 -222 c36 -45
91 -113 122 -152 32 -39 67 -82 78 -96 11 -14 31 -38 45 -55 99 -119 205 -255
205 -264 0 -24 -24 -20 -79 13 -32 20 -62 36 -65 36 -4 0 -12 5 -19 10 -21 18
-110 75 -195 126 -45 27 -101 61 -125 76 -23 15 -62 39 -87 53 -25 14 -72 43
-105 65 -33 22 -69 44 -80 50 -11 5 -51 29 -90 54 -38 24 -104 65 -146 90
-132 79 -141 76 187 76 l289 0 65 -82z m175 35 c14 -27 38 -70 53 -98 16 -27
50 -90 76 -140 27 -49 61 -112 76 -140 56 -102 77 -140 84 -159 7 -19 6 -19
-13 -2 -10 9 -39 42 -63 73 -38 48 -112 141 -192 238 -140 170 -206 255 -206
264 0 7 30 11 80 11 l80 0 25 -47z m130 -63 c23 -58 45 -114 49 -125 4 -11 18
-45 31 -75 25 -59 42 -119 31 -109 -7 6 -47 80 -162 296 -30 55 -54 106 -54
113 0 7 13 10 32 8 31 -3 34 -7 73 -108z m38 53 c33 -111 29 -131 -7 -43 -40
96 -41 100 -23 100 7 0 21 -25 30 -57z m44 -155 c-3 -8 -6 -5 -6 6 -1 11 2 17
5 13 3 -3 4 -12 1 -19z m592 -335 c69 -21 154 -102 170 -160 18 -62 13 -152
-9 -197 -88 -182 -338 -213 -463 -59 -46 57 -61 109 -54 195 5 54 12 77 37
113 74 107 192 147 319 108z"/>
<path d="M3243 5963 c-45 -31 -20 -113 35 -113 35 0 35 18 0 22 -22 2 -34 9
-36 21 -3 14 4 17 38 17 48 0 62 20 35 50 -21 24 -42 25 -72 3z m65 -20 c2 -9
-8 -13 -32 -13 -28 0 -34 3 -29 16 7 18 54 16 61 -3z"/>
<path d="M3398 5972 c-27 -3 -28 -6 -28 -59 0 -55 14 -67 16 -15 2 41 14 62
35 62 16 0 19 -8 19 -50 0 -38 4 -50 15 -50 17 0 21 60 5 89 -11 22 -26 28
-62 23z"/>
<path d="M2880 5915 c0 -30 5 -55 10 -55 6 0 10 25 10 55 0 30 -4 55 -10 55
-5 0 -10 -25 -10 -55z"/>
<path d="M3425 5660 c-16 -18 -16 -20 -2 -20 26 0 25 -117 0 -123 -10 -3 5 -5
32 -5 40 -1 46 1 27 9 -22 8 -23 14 -21 74 3 75 -8 95 -36 65z"/>
<path d="M2710 5590 l0 -80 43 1 c38 1 39 2 12 8 -30 6 -30 7 -33 79 -4 98
-22 92 -22 -8z"/>
<path d="M2865 5623 c46 -12 55 -43 12 -43 -45 -1 -77 -50 -41 -64 9 -3 33 -6
55 -6 38 0 39 1 39 34 0 62 -15 86 -52 85 -22 -1 -26 -3 -13 -6z m40 -63 c9
-15 -14 -40 -36 -40 -19 0 -27 29 -12 43 10 11 41 8 48 -3z"/>
<path d="M2960 5627 c0 -2 9 -30 20 -63 12 -32 18 -70 15 -82 -4 -17 -2 -23 7
-20 7 2 22 32 33 65 11 34 23 65 28 69 4 4 7 14 7 22 0 25 -28 -6 -35 -39 -9
-40 -24 -36 -42 11 -9 22 -20 40 -25 40 -4 0 -8 -2 -8 -3z"/>
<path d="M3110 5610 c-41 -41 -15 -101 43 -99 29 2 30 2 5 6 -30 5 -53 27 -43
43 3 5 24 10 46 10 31 0 39 4 39 18 0 43 -55 57 -90 22z m59 1 c7 -5 10 -14 7
-20 -10 -16 -56 -14 -56 2 0 26 23 35 49 18z"/>
<path d="M3245 5620 c-8 -14 -3 -110 5 -110 6 0 10 17 10 38 0 39 14 66 40 75
8 3 0 5 -18 4 -19 -1 -35 -4 -37 -7z"/>
<path d="M910 5540 c0 -64 3 -80 15 -80 12 0 15 16 15 80 0 64 -3 80 -15 80
-12 0 -15 -16 -15 -80z"/>
<path d="M1420 5595 c0 -8 -6 -15 -12 -15 -10 0 -10 -2 -1 -8 6 -4 13 -30 15
-57 3 -45 6 -50 28 -53 22 -2 23 -1 8 8 -22 14 -25 85 -4 97 11 6 9 12 -10 26
-21 15 -24 16 -24 2z"/>
<path d="M990 5520 c0 -33 4 -60 10 -60 6 0 10 18 10 39 0 52 8 71 30 71 22 0
30 -19 30 -71 0 -21 5 -39 10 -39 13 0 13 76 0 101 -8 14 -21 19 -50 19 l-40
0 0 -60z"/>
<path d="M1148 5573 c-15 -4 -18 -17 -18 -84 0 -51 4 -78 10 -74 6 3 10 15 10
26 0 15 7 19 31 19 36 0 58 23 59 58 0 53 -30 71 -92 55z m64 -28 c13 -29 -2
-75 -25 -75 -33 0 -47 43 -27 81 15 26 38 24 52 -6z"/>
<path d="M1270 5532 c0 -58 12 -72 62 -72 l38 0 0 60 c0 70 -18 81 -22 14 -2
-32 -9 -51 -21 -58 -24 -15 -37 6 -37 62 0 23 -4 42 -10 42 -5 0 -10 -22 -10
-48z"/>
<path d="M914 5267 c-3 -8 -4 -45 -2 -83 l3 -69 43 -3 c29 -2 42 0 37 7 -3 6
-17 11 -31 11 -23 0 -24 2 -24 75 0 45 -4 75 -10 75 -6 0 -13 -6 -16 -13z"/>
<path d="M1065 5230 c-4 -6 5 -10 19 -10 16 0 26 -6 26 -15 0 -8 -9 -15 -21
-15 -49 0 -76 -39 -47 -68 13 -13 47 -16 72 -6 25 10 22 100 -3 114 -25 13
-38 13 -46 0z m43 -77 c-4 -20 -35 -30 -50 -15 -15 15 0 32 28 32 19 0 25 -5
22 -17z"/>
<path d="M1322 5224 c-24 -17 -30 -61 -12 -95 11 -20 70 -28 70 -9 0 6 -13 10
-30 10 -23 0 -30 4 -30 20 0 17 7 20 40 20 50 0 65 24 31 52 -28 22 -40 23
-69 2z m58 -19 c0 -10 -10 -15 -30 -15 -20 0 -30 5 -30 15 0 10 10 15 30 15
20 0 30 -5 30 -15z"/>
<path d="M1170 5221 c0 -5 7 -28 16 -52 9 -24 16 -60 15 -79 -3 -49 14 -29 44
55 27 74 29 85 16 85 -4 0 -12 -15 -17 -32 -6 -18 -16 -33 -24 -33 -8 0 -19
15 -25 33 -8 29 -25 45 -25 23z"/>
<path d="M1450 5175 c0 -30 5 -55 10 -55 6 0 10 20 10 45 0 31 5 47 18 54 14
9 13 10 -10 11 -27 0 -28 -2 -28 -55z"/>
<path d="M6602 5138 c-30 -34 -34 -104 -6 -132 19 -19 83 -21 108 -3 11 8 20
31 23 61 5 40 2 51 -17 71 -30 32 -79 33 -108 3z m90 -15 c22 -20 24 -71 2
-101 -20 -28 -69 -30 -84 -3 -14 27 -13 94 2 109 17 17 58 15 80 -5z"/>
<path d="M7193 5121 c-6 -10 -8 -22 -3 -27 5 -5 10 -29 12 -54 3 -40 6 -45 28
-48 22 -2 23 -1 8 8 -23 14 -25 88 -4 96 12 5 11 9 -5 25 -23 23 -22 23 -36 0z"/>
<path d="M6772 5053 l3 -58 45 0 45 0 3 49 c2 27 -2 54 -7 59 -8 8 -11 -1 -11
-29 0 -48 -20 -80 -44 -71 -12 5 -16 19 -16 57 0 28 -5 50 -10 50 -7 0 -10
-22 -8 -57z"/>
<path d="M6933 5103 c-21 -4 -23 -10 -23 -79 0 -43 4 -74 10 -74 6 0 10 9 10
19 0 16 8 20 37 23 32 3 38 7 43 33 4 17 3 41 0 55 -6 26 -30 33 -77 23z m51
-19 c19 -18 20 -38 6 -65 -25 -46 -74 7 -52 56 13 29 24 31 46 9z"/>
<path d="M7050 5073 c0 -73 7 -83 56 -81 l44 1 0 59 c0 32 -4 58 -10 58 -5 0
-10 -19 -10 -42 0 -52 -11 -71 -36 -66 -15 2 -20 14 -22 56 -3 59 -22 72 -22
15z"/>
<path d="M6590 4726 l0 -86 41 0 c24 0 38 4 34 10 -3 6 -17 10 -31 10 -23 0
-24 2 -24 69 0 39 -4 73 -10 76 -6 4 -10 -25 -10 -79z"/>
<path d="M6725 4761 c-3 -5 7 -11 22 -13 35 -4 43 -28 10 -28 -27 0 -57 -23
-57 -44 0 -23 27 -38 62 -34 32 3 33 5 36 49 2 33 -2 51 -13 63 -18 18 -51 21
-60 7z m53 -78 c-4 -22 -58 -31 -58 -10 0 20 10 27 37 27 18 0 24 -5 21 -17z"/>
<path d="M6984 4744 c-43 -42 -14 -103 49 -104 38 0 34 18 -5 22 -21 2 -34 9
-36 20 -3 13 6 17 39 20 49 4 59 18 30 47 -28 28 -47 26 -77 -5z m74 -11 c2
-9 -8 -13 -32 -13 -34 0 -44 8 -29 24 11 11 56 2 61 -11z"/>
<path d="M6840 4745 c0 -9 9 -35 20 -58 14 -28 18 -51 14 -71 -10 -44 13 -23
28 27 7 23 21 57 30 76 10 19 16 37 13 39 -10 10 -34 -21 -41 -50 l-6 -31 -19
24 c-10 13 -19 29 -19 36 0 18 -20 26 -20 8z"/>
<path d="M7121 4698 c1 -64 3 -63 14 5 4 26 13 41 28 47 20 8 18 9 -10 9 l-33
1 1 -62z"/>
<path d="M255 4481 c-3 -5 -1 -12 5 -16 5 -3 10 1 10 9 0 18 -6 21 -15 7z"/>
<path d="M316 4481 c-4 -5 -2 -12 3 -15 5 -4 12 -2 15 3 4 5 2 12 -3 15 -5 4
-12 2 -15 -3z"/>
<path d="M380 4474 c0 -8 5 -12 10 -9 6 4 8 11 5 16 -9 14 -15 11 -15 -7z"/>
<path d="M440 4480 c0 -5 7 -10 16 -10 8 0 12 5 9 10 -3 6 -10 10 -16 10 -5 0
-9 -4 -9 -10z"/>
<path d="M506 4481 c-4 -5 -2 -12 3 -15 5 -4 12 -2 15 3 4 5 2 12 -3 15 -5 4
-12 2 -15 -3z"/>
<path d="M565 4480 c-3 -5 1 -10 10 -10 9 0 13 5 10 10 -3 6 -8 10 -10 10 -2
0 -7 -4 -10 -10z"/>
<path d="M630 4480 c0 -5 5 -10 10 -10 6 0 10 5 10 10 0 6 -4 10 -10 10 -5 0
-10 -4 -10 -10z"/>
<path d="M7908 4118 c-2 -49 3 -141 7 -146 2 -2 44 18 95 43 51 26 89 50 84
55 -14 13 -161 90 -173 90 -6 0 -12 -19 -13 -42z"/>
<path d="M7220 4070 c0 -5 5 -10 10 -10 6 0 10 5 10 10 0 6 -4 10 -10 10 -5 0
-10 -4 -10 -10z"/>
<path d="M7280 4070 c0 -5 5 -10 10 -10 6 0 10 5 10 10 0 6 -4 10 -10 10 -5 0
-10 -4 -10 -10z"/>
<path d="M7340 4070 c0 -5 5 -10 10 -10 6 0 10 5 10 10 0 6 -4 10 -10 10 -5 0
-10 -4 -10 -10z"/>
<path d="M7410 4070 c0 -5 5 -10 10 -10 6 0 10 5 10 10 0 6 -4 10 -10 10 -5 0
-10 -4 -10 -10z"/>
<path d="M7470 4070 c0 -5 5 -10 10 -10 6 0 10 5 10 10 0 6 -4 10 -10 10 -5 0
-10 -4 -10 -10z"/>
<path d="M7530 4070 c0 -5 5 -10 10 -10 6 0 10 5 10 10 0 6 -4 10 -10 10 -5 0
-10 -4 -10 -10z"/>
<path d="M7590 4070 c0 -5 7 -10 15 -10 8 0 15 5 15 10 0 6 -7 10 -15 10 -8 0
-15 -4 -15 -10z"/>
<path d="M7655 4070 c-3 -5 1 -10 9 -10 9 0 16 5 16 10 0 6 -4 10 -9 10 -6 0
-13 -4 -16 -10z"/>
<path d="M7720 4070 c0 -5 5 -10 10 -10 6 0 10 5 10 10 0 6 -4 10 -10 10 -5 0
-10 -4 -10 -10z"/>
<path d="M7780 4070 c0 -5 7 -10 16 -10 8 0 12 5 9 10 -3 6 -10 10 -16 10 -5
0 -9 -4 -9 -10z"/>
<path d="M7845 4070 c-3 -5 1 -10 9 -10 9 0 16 5 16 10 0 6 -4 10 -9 10 -6 0
-13 -4 -16 -10z"/>
<path d="M285 3671 c-7 -12 12 -24 25 -16 11 7 4 25 -10 25 -5 0 -11 -4 -15
-9z"/>
<path d="M357 3674 c-8 -8 1 -24 14 -24 5 0 9 7 9 15 0 15 -12 20 -23 9z"/>
<path d="M417 3674 c-8 -8 1 -24 14 -24 5 0 9 7 9 15 0 15 -12 20 -23 9z"/>
<path d="M480 3665 c0 -8 5 -15 10 -15 6 0 10 7 10 15 0 8 -4 15 -10 15 -5 0
-10 -7 -10 -15z"/>
<path d="M540 3665 c0 -9 5 -15 11 -13 6 2 11 8 11 13 0 5 -5 11 -11 13 -6 2
-11 -4 -11 -13z"/>
<path d="M606 3673 c-11 -11 -6 -23 9 -23 8 0 15 4 15 9 0 13 -16 22 -24 14z"/>
<path d="M7897 3353 c-11 -10 -8 -168 3 -179 10 -10 37 2 169 70 l34 18 -97
49 c-109 55 -100 51 -109 42z"/>
<path d="M7220 3260 c0 -5 5 -10 10 -10 6 0 10 5 10 10 0 6 -4 10 -10 10 -5 0
-10 -4 -10 -10z"/>
<path d="M7280 3261 c0 -6 5 -13 10 -16 6 -3 10 1 10 9 0 9 -4 16 -10 16 -5 0
-10 -4 -10 -9z"/>
<path d="M7340 3260 c0 -5 7 -10 16 -10 8 0 12 5 9 10 -3 6 -10 10 -16 10 -5
0 -9 -4 -9 -10z"/>
<path d="M7400 3260 c0 -5 7 -10 15 -10 8 0 15 5 15 10 0 6 -7 10 -15 10 -8 0
-15 -4 -15 -10z"/>
<path d="M7470 3254 c0 -8 5 -12 10 -9 6 3 10 10 10 16 0 5 -4 9 -10 9 -5 0
-10 -7 -10 -16z"/>
<path d="M7530 3260 c0 -5 5 -10 10 -10 6 0 10 5 10 10 0 6 -4 10 -10 10 -5 0
-10 -4 -10 -10z"/>
<path d="M7590 3260 c0 -5 7 -10 15 -10 8 0 15 5 15 10 0 6 -7 10 -15 10 -8 0
-15 -4 -15 -10z"/>
<path d="M7650 3260 c0 -5 7 -10 15 -10 8 0 15 5 15 10 0 6 -7 10 -15 10 -8 0
-15 -4 -15 -10z"/>
<path d="M7715 3260 c3 -5 10 -10 16 -10 5 0 9 5 9 10 0 6 -7 10 -16 10 -8 0
-12 -4 -9 -10z"/>
<path d="M7780 3260 c0 -5 7 -10 15 -10 8 0 15 5 15 10 0 6 -7 10 -15 10 -8 0
-15 -4 -15 -10z"/>
<path d="M7840 3260 c0 -5 7 -10 15 -10 8 0 15 5 15 10 0 6 -7 10 -15 10 -8 0
-15 -4 -15 -10z"/>
<path d="M270 2850 c0 -5 7 -10 15 -10 8 0 15 5 15 10 0 6 -7 10 -15 10 -8 0
-15 -4 -15 -10z"/>
<path d="M338 2848 c9 -9 15 -9 24 0 9 9 7 12 -12 12 -19 0 -21 -3 -12 -12z"/>
<path d="M400 2850 c0 -5 7 -10 15 -10 8 0 15 5 15 10 0 6 -7 10 -15 10 -8 0
-15 -4 -15 -10z"/>
<path d="M460 2850 c0 -5 7 -10 15 -10 8 0 15 5 15 10 0 6 -7 10 -15 10 -8 0
-15 -4 -15 -10z"/>
<path d="M525 2850 c3 -5 10 -10 16 -10 5 0 9 5 9 10 0 6 -7 10 -16 10 -8 0
-12 -4 -9 -10z"/>
<path d="M590 2850 c0 -5 4 -10 9 -10 6 0 13 5 16 10 3 6 -1 10 -9 10 -9 0
-16 -4 -16 -10z"/>
<path d="M7915 2542 c-3 -3 -5 -19 -5 -37 0 -17 -5 -36 -12 -43 -9 -9 -9 -15
0 -24 7 -7 12 -26 12 -43 0 -18 3 -34 6 -38 7 -7 184 83 184 94 0 10 -178 98
-185 91z"/>
<path d="M7220 2450 c0 -5 5 -10 10 -10 6 0 10 5 10 10 0 6 -4 10 -10 10 -5 0
-10 -4 -10 -10z"/>
<path d="M7280 2450 c0 -5 5 -10 10 -10 6 0 10 5 10 10 0 6 -4 10 -10 10 -5 0
-10 -4 -10 -10z"/>
<path d="M7340 2450 c0 -5 5 -10 10 -10 6 0 10 5 10 10 0 6 -4 10 -10 10 -5 0
-10 -4 -10 -10z"/>
<path d="M7405 2450 c-3 -5 1 -10 10 -10 9 0 13 5 10 10 -3 6 -8 10 -10 10 -2
0 -7 -4 -10 -10z"/>
<path d="M7470 2450 c0 -5 5 -10 10 -10 6 0 10 5 10 10 0 6 -4 10 -10 10 -5 0
-10 -4 -10 -10z"/>
<path d="M7530 2450 c0 -5 5 -10 10 -10 6 0 10 5 10 10 0 6 -4 10 -10 10 -5 0
-10 -4 -10 -10z"/>
<path d="M7590 2450 c0 -5 7 -10 15 -10 8 0 15 5 15 10 0 6 -7 10 -15 10 -8 0
-15 -4 -15 -10z"/>
<path d="M7650 2450 c0 -5 7 -10 15 -10 8 0 15 5 15 10 0 6 -7 10 -15 10 -8 0
-15 -4 -15 -10z"/>
<path d="M7720 2450 c0 -5 5 -10 10 -10 6 0 10 5 10 10 0 6 -4 10 -10 10 -5 0
-10 -4 -10 -10z"/>
<path d="M7780 2450 c0 -5 7 -10 15 -10 8 0 15 5 15 10 0 6 -7 10 -15 10 -8 0
-15 -4 -15 -10z"/>
<path d="M7840 2450 c0 -5 7 -10 15 -10 8 0 15 5 15 10 0 6 -7 10 -15 10 -8 0
-15 -4 -15 -10z"/>
<path d="M260 2040 c0 -5 5 -10 10 -10 6 0 10 5 10 10 0 6 -4 10 -10 10 -5 0
-10 -4 -10 -10z"/>
<path d="M320 2040 c0 -5 4 -10 9 -10 6 0 13 5 16 10 3 6 -1 10 -9 10 -9 0
-16 -4 -16 -10z"/>
<path d="M380 2040 c0 -5 7 -10 15 -10 8 0 15 5 15 10 0 6 -7 10 -15 10 -8 0
-15 -4 -15 -10z"/>
<path d="M440 2040 c0 -5 7 -10 15 -10 8 0 15 5 15 10 0 6 -7 10 -15 10 -8 0
-15 -4 -15 -10z"/>
<path d="M510 2040 c0 -5 7 -10 15 -10 8 0 15 5 15 10 0 6 -7 10 -15 10 -8 0
-15 -4 -15 -10z"/>
<path d="M570 2040 c0 -5 7 -10 15 -10 8 0 15 5 15 10 0 6 -7 10 -15 10 -8 0
-15 -4 -15 -10z"/>
<path d="M630 2040 c0 -5 7 -10 15 -10 8 0 15 5 15 10 0 6 -7 10 -15 10 -8 0
-15 -4 -15 -10z"/>
<path d="M7320 1910 c-29 -29 -28 -99 3 -128 35 -33 79 -29 111 9 33 39 35 90
4 119 -29 27 -91 27 -118 0z m100 -9 c25 -48 -3 -131 -45 -131 -45 0 -71 83
-39 128 20 28 69 30 84 3z"/>
<path d="M7639 1903 c-4 -46 4 -119 13 -130 6 -7 18 -13 27 -13 14 1 14 2 -1
14 -23 17 -25 96 -3 96 20 0 19 6 -5 30 -25 25 -30 25 -31 3z"/>
<path d="M8016 1898 c-13 -14 -15 -23 -8 -26 7 -2 12 -23 12 -46 0 -44 13 -66
40 -66 13 1 12 3 -2 14 -12 9 -18 27 -18 55 0 32 4 41 18 41 15 1 15 2 1 13
-9 7 -18 18 -20 25 -3 8 -10 5 -23 -10z"/>
<path d="M7758 1883 c-28 -4 -28 -5 -28 -78 0 -41 5 -77 10 -80 6 -4 10 5 10
20 0 22 3 25 25 19 36 -9 55 11 55 60 0 41 -14 67 -34 65 -6 -1 -23 -4 -38 -6z
m56 -37 c8 -31 -1 -54 -25 -67 -16 -8 -21 -5 -30 15 -17 37 -4 76 25 76 17 0
26 -7 30 -24z"/>
<path d="M7493 1834 c6 -59 23 -76 65 -68 31 6 32 8 32 60 0 30 -4 54 -10 54
-5 0 -10 -15 -10 -34 0 -47 -9 -66 -30 -66 -21 0 -30 19 -30 66 0 19 -5 34
-11 34 -8 0 -10 -15 -6 -46z"/>
<path d="M7872 1829 c6 -63 16 -72 62 -64 l36 7 0 54 c0 30 -4 54 -10 54 -5 0
-10 -16 -10 -36 0 -52 -16 -77 -40 -64 -15 8 -20 21 -20 55 0 27 -5 45 -11 45
-8 0 -10 -17 -7 -51z"/>
<path d="M7381 1601 c-15 -9 -11 -223 4 -228 6 -2 9 34 7 99 -3 85 -1 104 12
114 13 9 14 13 3 17 -8 3 -19 2 -26 -2z"/>
<path d="M7856 1602 c-3 -6 1 -12 9 -16 12 -4 15 -25 15 -101 0 -57 -4 -95
-10 -95 -5 0 -10 -4 -10 -10 0 -5 7 -10 15 -10 13 0 15 17 13 117 -2 77 -7
118 -15 120 -6 2 -14 0 -17 -5z"/>
<path d="M7472 1503 c1 -82 2 -84 7 -29 3 33 11 61 16 62 6 2 25 -24 44 -56
48 -84 61 -79 61 20 0 47 -4 80 -10 80 -5 0 -10 -26 -10 -57 0 -50 -2 -55 -15
-43 -8 8 -25 35 -38 60 -13 25 -31 46 -40 48 -15 3 -17 -7 -15 -85z"/>
<path d="M7730 1580 c0 -5 11 -10 24 -10 16 0 26 -7 29 -21 5 -17 -1 -24 -23
-32 l-29 -11 29 -13 c17 -6 30 -18 30 -26 0 -23 -27 -40 -55 -35 -13 3 -22 1
-19 -3 11 -19 73 -9 88 13 14 20 14 24 0 46 -12 17 -13 27 -5 35 17 17 13 45
-8 57 -25 13 -61 13 -61 0z"/>
<path d="M270 1476 c0 -51 4 -86 10 -86 6 0 10 33 10 79 0 44 -4 83 -10 86 -6
4 -10 -25 -10 -79z"/>
<path d="M771 1523 c-5 -10 -5 -26 -1 -39 5 -12 6 -24 3 -27 -3 -3 -2 -19 2
-36 5 -25 11 -31 33 -30 26 0 26 1 5 9 -18 7 -23 17 -23 46 0 20 6 42 14 48
11 9 10 14 -5 28 -17 16 -19 16 -28 1z"/>
<path d="M345 1502 c-10 -10 -5 -112 5 -112 6 0 10 17 10 37 0 40 24 75 46 66
9 -3 14 -21 14 -54 0 -27 5 -49 10 -49 12 0 13 89 2 107 -8 12 -76 15 -87 5z"/>
<path d="M508 1503 c-18 -5 -26 -63 -17 -128 5 -38 5 -38 10 -10 4 27 7 30 36
27 35 -4 53 17 53 60 -1 46 -30 65 -82 51z m50 -15 c32 -32 -1 -104 -36 -81
-23 14 -27 40 -11 69 14 26 29 30 47 12z"/>
<path d="M626 1503 c-9 -9 -7 -58 4 -87 8 -23 14 -25 55 -24 l45 2 0 58 c0 32
-4 58 -10 58 -5 0 -10 -17 -10 -38 0 -46 -20 -78 -44 -69 -11 5 -16 19 -16 51
0 43 -10 63 -24 49z"/>
<path d="M7660 1448 c0 -2 -4 -18 -10 -37 -9 -33 -9 -33 10 -16 22 20 26 40
10 50 -5 3 -10 5 -10 3z"/>
<path d="M1954 1374 c3 -26 6 -66 6 -90 0 -32 4 -44 15 -44 17 0 18 13 8 113
-4 50 -10 67 -21 67 -12 0 -13 -9 -8 -46z"/>
<path d="M2060 1383 c0 -81 12 -143 28 -143 12 0 13 9 8 46 -3 26 -6 66 -6 90
0 32 -4 44 -15 44 -11 0 -15 -11 -15 -37z"/>
<path d="M2175 1410 c3 -5 8 -10 11 -10 2 0 4 5 4 10 0 6 -5 10 -11 10 -5 0
-7 -4 -4 -10z"/>
<path d="M6025 1268 c4 -51 9 -95 11 -97 15 -16 22 26 17 102 -5 67 -9 87 -20
87 -13 0 -14 -15 -8 -92z"/>
<path d="M6128 1333 c-4 -36 14 -163 23 -163 14 0 16 27 6 108 -10 82 -23 107
-29 55z"/>
<path d="M6240 1350 c0 -5 5 -10 10 -10 6 0 10 5 10 10 0 6 -4 10 -10 10 -5 0
-10 -4 -10 -10z"/>
<path d="M2239 1250 c-5 -70 -5 -74 8 -69 4 2 6 33 3 69 l-6 65 -5 -65z"/>
<path d="M270 1110 c0 -98 3 -120 14 -120 8 0 18 5 21 10 3 6 1 10 -4 10 -16
0 -14 193 1 208 9 9 7 12 -10 12 -21 0 -22 -3 -22 -120z"/>
<path d="M758 1218 c17 -17 17 -208 0 -208 -9 0 -9 -3 -1 -11 25 -25 33 4 33
117 0 111 -1 114 -22 114 -17 0 -19 -3 -10 -12z"/>
<path d="M366 1195 c-10 -27 -7 -143 4 -150 6 -4 10 19 10 62 0 63 1 66 17 51
9 -9 28 -39 42 -65 39 -72 55 -64 59 26 2 42 -2 79 -8 85 -7 7 -10 -8 -10 -48
0 -34 -4 -56 -10 -54 -5 2 -25 25 -42 52 -36 55 -52 65 -62 41z"/>
<path d="M632 1161 c-39 -61 -40 -71 -4 -71 31 0 47 -9 53 -28 3 -9 10 -4 19
14 12 21 12 28 3 31 -8 3 -13 23 -13 54 0 64 -16 64 -58 0z m48 -21 c0 -20 -6
-31 -21 -35 -33 -11 -40 7 -18 43 24 37 39 34 39 -8z"/>
<path d="M6270 1185 c0 -8 2 -15 4 -15 2 0 6 7 10 15 3 8 1 15 -4 15 -6 0 -10
-7 -10 -15z"/>
<path d="M3031 1143 c0 -6 -6 -24 -13 -40 -6 -15 -10 -32 -9 -37 1 -5 -3 -32
-9 -60 -7 -28 -14 -60 -16 -71 -3 -11 4 -4 14 15 23 42 46 147 39 181 -2 13
-5 19 -6 12z"/>
<path d="M3065 1140 c3 -5 8 -10 11 -10 2 0 4 5 4 10 0 6 -5 10 -11 10 -5 0
-7 -4 -4 -10z"/>
<path d="M1860 985 c0 -113 0 -115 23 -114 12 0 16 3 10 6 -18 6 -18 194 -1
211 9 9 7 12 -10 12 -21 0 -22 -3 -22 -115z"/>
<path d="M2303 1086 c14 -11 17 -29 17 -104 0 -76 -3 -93 -17 -101 -16 -9 -16
-10 5 -11 22 0 22 2 22 115 0 113 0 115 -22 115 -21 -1 -22 -2 -5 -14z"/>
<path d="M2167 1083 c-4 -3 -7 -21 -7 -40 0 -28 3 -33 24 -33 30 0 49 -22 44
-52 -2 -19 -9 -23 -41 -23 -43 0 -49 -10 -11 -19 37 -10 74 17 74 52 0 34 -16
52 -46 52 -13 0 -24 8 -27 19 -6 26 0 31 35 31 16 0 27 4 24 8 -6 10 -60 14
-69 5z"/>
<path d="M1972 1035 c-42 -60 -42 -75 3 -75 28 0 38 -5 44 -22 l9 -23 9 25 c6
14 7 50 4 80 -8 71 -26 75 -69 15z m43 -21 c0 -24 -5 -30 -27 -32 -31 -4 -36
9 -13 28 8 7 15 19 15 27 0 8 6 13 13 11 6 -3 12 -18 12 -34z"/>
<path d="M559 1065 c-3 -5 -9 -23 -13 -40 -7 -28 -6 -29 9 -14 9 9 15 27 13
40 -2 13 -6 20 -9 14z"/>
<path d="M5947 1033 c-4 -3 -7 -55 -7 -115 0 -106 1 -108 23 -107 12 0 16 3
10 6 -18 6 -18 194 -1 211 9 9 9 12 -3 12 -9 0 -19 -3 -22 -7z"/>
<path d="M6370 1031 c0 -5 5 -11 10 -13 16 -5 15 -189 -2 -199 -9 -6 -7 -9 9
-9 21 0 22 5 25 105 2 58 2 110 0 115 -5 13 -42 13 -42 1z"/>
<path d="M6063 1013 c44 -5 45 -12 12 -87 -28 -64 -29 -66 -15 -66 11 0 70
124 70 146 0 10 -14 14 -52 12 -44 -1 -46 -2 -15 -5z"/>
<path d="M6270 1011 c38 -10 40 -53 3 -68 l-28 -11 27 -1 c18 -1 29 -8 33 -22
9 -26 -1 -36 -40 -41 -25 -4 -27 -5 -11 -13 45 -20 97 33 67 69 -8 9 -8 22 -2
38 13 35 -3 58 -42 57 -30 -1 -30 -1 -7 -8z"/>
<path d="M2096 914 c-9 -36 1 -43 14 -10 12 33 12 36 1 36 -5 0 -12 -12 -15
-26z"/>
<path d="M3115 930 c-3 -5 1 -10 9 -10 9 0 16 5 16 10 0 6 -4 10 -9 10 -6 0
-13 -4 -16 -10z"/>
<path d="M6177 873 c-2 -5 -7 -21 -11 -38 l-6 -30 20 24 c11 13 20 27 20 32 0
11 -18 21 -23 12z"/>
<path d="M3834 768 c3 -50 9 -94 12 -97 10 -10 24 24 19 44 -4 11 -9 48 -12
83 -9 101 -27 75 -19 -30z"/>
<path d="M3936 852 c-3 -5 -2 -48 1 -95 5 -68 9 -87 21 -87 12 0 14 11 8 61
-3 34 -6 77 -6 95 0 32 -12 45 -24 26z"/>
<path d="M4134 724 c0 -27 2 -31 13 -23 16 14 17 33 1 47 -10 8 -13 2 -14 -24z"/>
<path d="M4080 640 c0 -5 13 -10 29 -10 17 0 33 5 36 10 4 6 -8 10 -29 10 -20
0 -36 -4 -36 -10z"/>
<path d="M3750 405 c0 -113 0 -115 23 -114 12 0 16 3 10 6 -18 6 -18 194 -1
211 9 9 7 12 -10 12 -21 0 -22 -3 -22 -115z"/>
<path d="M4193 503 c25 -29 25 -187 0 -202 -15 -9 -14 -10 10 -11 l28 0 -3
113 c-3 111 -3 112 -28 116 -24 3 -24 2 -7 -16z"/>
<path d="M3873 502 c-30 -3 -33 -6 -33 -37 0 -33 13 -45 50 -45 23 0 33 -26
20 -51 -7 -12 -21 -19 -41 -19 -18 0 -28 -4 -24 -10 10 -16 48 -11 73 8 37 28
27 74 -18 88 -23 8 -35 18 -35 30 0 14 9 20 35 24 42 6 18 17 -27 12z"/>
<path d="M4075 500 l-40 -7 43 -2 c26 0 42 -6 42 -13 0 -7 -13 -40 -29 -73
-16 -33 -27 -62 -25 -64 9 -10 34 27 58 88 20 50 23 67 14 73 -7 4 -15 7 -18
6 -3 0 -23 -4 -45 -8z"/>
<path d="M4970 360 c0 -5 5 -10 11 -10 5 0 7 5 4 10 -3 6 -8 10 -11 10 -2 0
-4 -4 -4 -10z"/>
<path d="M3987 353 c-2 -5 -7 -21 -11 -38 l-6 -30 20 24 c21 24 27 51 11 51
-6 0 -12 -3 -14 -7z"/>
<path d="M4927 328 c-6 -18 -10 -37 -8 -43 1 -5 -2 -27 -8 -50 -5 -22 -12 -53
-16 -70 -10 -54 18 3 32 65 26 112 26 168 0 98z"/>
<path d="M5050 225 c0 -15 4 -24 10 -20 6 3 10 12 10 20 0 8 -4 17 -10 20 -6
4 -10 -5 -10 -20z"/>
<path d="M4995 140 c-4 -6 9 -10 31 -10 42 0 42 4 2 14 -15 3 -30 2 -33 -4z"/>
</g>
</svg>
